<svg width="187" height="53" viewBox="0 0 187 53" fill="none" xmlns="http://www.w3.org/2000/svg">
<g clip-path="url(#clip0_22_1077)">
<path d="M68.7467 19.9706C68.3462 19.0332 67.7777 18.2292 67.0412 17.5549C66.3082 16.8843 65.4179 16.3688 64.3738 16.0118C63.3298 15.6513 62.1534 15.4746 60.8448 15.4746H51.9238V38.7369H56.0571V19.2928H60.8448C62.1999 19.2928 63.2654 19.6389 64.0484 20.3347C64.8279 21.027 65.2176 21.968 65.2176 23.147C65.2176 24.326 64.8172 25.2958 64.0127 25.9773C63.2082 26.6587 62.1534 27.0012 60.8448 27.0012H58.8675V30.8194H60.8448C62.1534 30.8194 63.3298 30.6427 64.3738 30.2822C65.4179 29.9252 66.3082 29.4096 67.0412 28.739C67.7777 28.0648 68.3462 27.2608 68.7467 26.3234C69.1471 25.386 69.3509 24.326 69.3509 23.147C69.3509 21.968 69.1471 20.908 68.7467 19.9706Z" fill="white"/>
<path d="M72.7941 15.4712C73.4842 15.4712 74.0563 15.7019 74.5175 16.167C74.9752 16.6321 75.2076 17.209 75.2076 17.9049C75.2076 18.6007 74.9787 19.1776 74.5175 19.6391C74.0598 20.1042 73.4842 20.3349 72.7941 20.3349C72.104 20.3349 71.5319 20.1042 71.0707 19.6391C70.6095 19.1776 70.3806 18.5971 70.3806 17.9049C70.3806 17.2126 70.6095 16.6321 71.0707 16.167C71.5319 15.7019 72.104 15.4712 72.7941 15.4712ZM70.9026 22.0691H74.6891V38.7371H70.9026V22.0691Z" fill="white"/>
<path d="M80.5424 45.3349H76.7559V28.3208H80.5424V30.5778C80.5424 31.2268 80.664 31.8397 80.9035 32.4166C81.1431 32.9971 81.472 33.4946 81.8832 33.9092C82.298 34.3275 82.7843 34.6556 83.3456 34.8971C83.907 35.1387 84.522 35.2613 85.187 35.2613C85.8521 35.2613 86.4313 35.1387 86.9962 34.8971C87.5576 34.6556 88.051 34.3239 88.4765 33.9092C88.902 33.491 89.2345 32.9935 89.4741 32.4166C89.7136 31.8397 89.8352 31.2232 89.8352 30.5778C89.8352 29.9324 89.7136 29.2871 89.4741 28.721C89.2345 28.1549 88.8984 27.661 88.4765 27.2464C88.051 26.8281 87.5576 26.5001 86.9962 26.2585C86.4349 26.0169 85.8306 25.8943 85.187 25.8943H76.7488V22.0762H85.187C86.3562 22.0762 87.4611 22.2961 88.4944 22.736C89.5277 23.1758 90.4216 23.7779 91.1796 24.5423C91.9376 25.3066 92.5347 26.2044 92.9709 27.232C93.4072 28.2631 93.6253 29.3808 93.6253 30.5814C93.6253 31.782 93.4143 32.8745 92.9888 33.9164C92.5633 34.9584 91.9912 35.8598 91.2654 36.6241C90.5432 37.3885 89.685 37.9906 88.6982 38.4305C87.7113 38.8703 86.6423 39.0903 85.4945 39.0903C84.5291 39.0903 83.6352 38.9388 82.8093 38.6396C81.9834 38.3403 81.2253 37.9221 80.5353 37.3885V45.3421L80.5424 45.3349Z" fill="white"/>
<path d="M107.334 32.0346L113.945 15.4712H119.315V38.7371H115.182V22.6604L108.742 38.7371H105.918L99.4783 22.6604V38.7371H95.345V15.4712H100.715L107.327 32.0346H107.334Z" fill="white"/>
<path d="M123.624 15.4712C124.314 15.4712 124.886 15.7019 125.347 16.167C125.805 16.6321 126.037 17.209 126.037 17.9049C126.037 18.6007 125.809 19.1776 125.347 19.6391C124.89 20.1042 124.314 20.3349 123.624 20.3349C122.934 20.3349 122.362 20.1042 121.901 19.6391C121.439 19.1776 121.21 18.5971 121.21 17.9049C121.21 17.2126 121.439 16.6321 121.901 16.167C122.362 15.7019 122.934 15.4712 123.624 15.4712ZM121.729 22.0691H125.515V38.7371H121.729V22.0691Z" fill="white"/>
<path d="M135.33 25.5413C134.136 25.5413 133.178 25.8946 132.455 26.6013C131.733 27.308 131.372 28.249 131.372 29.4316V38.7372H127.585V29.4316C127.585 28.3211 127.779 27.2899 128.172 26.3417C128.562 25.3935 129.101 24.575 129.792 23.8936C130.482 23.2122 131.293 22.6786 132.237 22.2964C133.178 21.9142 134.211 21.7231 135.337 21.7231C136.463 21.7231 137.493 21.9142 138.437 22.2964C139.378 22.6786 140.193 23.2122 140.883 23.8936C141.573 24.575 142.106 25.3935 142.485 26.3417C142.864 27.2899 143.053 28.3211 143.053 29.4316V38.7372H139.267V29.4316C139.267 28.2526 138.909 27.308 138.198 26.6013C137.486 25.8946 136.531 25.5413 135.341 25.5413H135.33Z" fill="white"/>
<path d="M144.809 32.9682C144.441 31.7748 144.301 30.6066 144.39 29.4637C144.48 28.3208 144.773 27.2644 145.27 26.2945C145.763 25.3283 146.446 24.481 147.319 23.7599C148.191 23.0388 149.217 22.4908 150.401 22.1194C151.584 21.7481 152.739 21.6111 153.862 21.7048C154.985 21.7985 156.025 22.105 156.976 22.617C157.927 23.129 158.764 23.832 159.486 24.719C160.205 25.6095 160.752 26.6479 161.12 27.8413C161.167 27.9963 161.21 28.1477 161.242 28.2956C161.274 28.4434 161.303 28.6345 161.328 28.8688L148.803 32.806C149.35 33.8696 150.111 34.6087 151.091 35.0161C152.071 35.4235 153.176 35.4343 154.402 35.0485C155.235 34.7853 155.925 34.3996 156.476 33.8876C157.026 33.3756 157.405 32.7591 157.616 32.038L161.56 30.7977C161.56 31.7207 161.417 32.5932 161.145 33.4189C160.87 34.2445 160.473 35.0017 159.951 35.6867C159.429 36.3717 158.796 36.9702 158.053 37.4822C157.309 37.9942 156.465 38.398 155.525 38.6973C154.341 39.0686 153.186 39.2092 152.064 39.1119C150.941 39.0181 149.904 38.7189 148.956 38.2177C148.009 37.7166 147.172 37.0207 146.454 36.1302C145.735 35.2432 145.184 34.1904 144.809 32.9718V32.9682ZM156.755 27.3906C156.161 26.5577 155.41 25.9953 154.498 25.6996C153.59 25.404 152.596 25.4256 151.524 25.7609C150.451 26.0962 149.589 26.6587 149.006 27.4266C148.424 28.191 148.134 29.0815 148.138 30.1019L156.751 27.3942L156.755 27.3906Z" fill="white"/>
<path d="M170.628 25.5413C169.412 25.5413 168.447 25.8766 167.735 26.5472C167.024 27.2178 166.666 28.1336 166.666 29.291V38.7372H162.88V29.4316C162.88 28.2526 163.062 27.1854 163.43 26.2372C163.799 25.2889 164.321 24.4777 164.996 23.8071C165.672 23.1365 166.487 22.6209 167.442 22.2604C168.393 21.9034 169.455 21.7231 170.628 21.7231V25.5413Z" fill="white"/>
<path d="M185.813 28.1477H182.026C182.026 27.3149 181.694 26.6443 181.029 26.1323C180.364 25.6239 179.481 25.3679 178.376 25.3679C177.482 25.3679 176.742 25.559 176.155 25.9412C175.569 26.3234 175.276 26.8029 175.276 27.3834C175.276 27.9639 175.562 28.465 176.138 28.8941C176.71 29.3231 177.428 29.745 178.29 30.1632C179.152 30.5814 180.081 31.0213 181.079 31.4828C182.077 31.9479 183.006 32.5031 183.868 33.1485C184.73 33.7975 185.445 34.5726 186.02 35.474C186.592 36.3754 186.882 37.4642 186.882 38.7369H183.096C183.096 37.8824 182.81 37.1686 182.234 36.6025C181.658 36.0364 180.943 35.5209 180.081 35.0558C179.22 34.5943 178.29 34.1472 177.293 33.7181C176.295 33.2891 175.365 32.7988 174.504 32.2435C173.642 31.6883 172.927 31.0213 172.351 30.2461C171.775 29.4709 171.489 28.5155 171.489 27.3798C171.489 26.5686 171.668 25.8186 172.022 25.1228C172.376 24.4269 172.87 23.8284 173.502 23.3164C174.132 22.8081 174.879 22.4151 175.741 22.1375C176.602 21.8599 177.55 21.7192 178.583 21.7192C179.617 21.7192 180.643 21.8743 181.526 22.1879C182.409 22.5016 183.167 22.9415 183.8 23.5075C184.433 24.0736 184.923 24.7514 185.28 25.5374C185.634 26.3234 185.813 27.1923 185.813 28.1405V28.1477ZM173.899 34.2229C174.589 34.2229 175.161 34.4537 175.619 34.9188C176.077 35.3839 176.309 35.9607 176.309 36.6566C176.309 37.3524 176.08 37.9293 175.619 38.3908C175.161 38.8523 174.586 39.0867 173.899 39.0867C173.213 39.0867 172.637 38.8559 172.176 38.3908C171.715 37.9293 171.486 37.3488 171.486 36.6566C171.486 35.9643 171.715 35.3839 172.176 34.9188C172.637 34.4537 173.209 34.2229 173.899 34.2229Z" fill="white"/>
<path d="M44.7513 34.2479V19.2241C44.7513 15.9395 43.0136 12.9073 40.1925 11.2633L27.292 3.75672C24.4709 2.11625 20.9955 2.11625 18.178 3.75672L5.27388 11.2669C2.45279 12.9073 0.715088 15.9431 0.715088 19.2277V34.2516C0.715088 37.5361 2.45279 40.5683 5.27388 42.2124L18.1744 49.7225C20.9955 51.363 24.4709 51.363 27.2884 49.7225L40.1889 42.2124C43.01 40.5719 44.7477 37.5361 44.7477 34.2516L44.7513 34.2479Z" fill="url(#paint0_linear_22_1077)"/>
<mask id="mask0_22_1077" style="mask-type:luminance" maskUnits="userSpaceOnUse" x="0" y="2" width="45" height="49">
<path d="M44.7513 34.2479V19.2241C44.7513 15.9395 43.0136 12.9073 40.1925 11.2633L27.292 3.75672C24.4709 2.11625 20.9955 2.11625 18.178 3.75672L5.27388 11.2669C2.45279 12.9073 0.715088 15.9431 0.715088 19.2277V34.2516C0.715088 37.5361 2.45279 40.5683 5.27388 42.2124L18.1744 49.7225C20.9955 51.363 24.4709 51.363 27.2884 49.7225L40.1889 42.2124C43.01 40.5719 44.7477 37.5361 44.7477 34.2516L44.7513 34.2479Z" fill="white"/>
</mask>
<g mask="url(#mask0_22_1077)">
<g opacity="0.91">
<path d="M37.568 20.5224C36.6956 19.4732 35.6014 18.6007 34.2892 17.8868C33.0128 17.191 31.5361 16.6682 29.8556 16.3113C28.1965 15.9543 26.3551 15.7812 24.3242 15.7812H10.4655L2.52783 51.9186H12.7145L16.4259 19.7617H24.3421C26.584 19.7617 28.3717 20.1474 29.7412 20.937C31.1392 21.741 31.933 22.8695 32.101 24.337C32.2798 25.9017 31.6934 27.1781 30.2918 28.1263C28.8544 29.0998 26.8807 29.6009 24.3922 29.6009H20.6307L20.359 35.6544H24.4208C27.1096 35.6544 29.5052 35.3516 31.5861 34.7459C33.6349 34.151 35.3118 33.3109 36.599 32.2437C37.8612 31.1981 38.73 29.9867 39.2163 28.6238C39.6847 27.3078 39.7455 25.8729 39.4094 24.3442C39.0733 22.8155 38.4619 21.6112 37.5608 20.5296L37.568 20.5224Z" fill="white"/>
<path opacity="0.99" d="M37.4321 20.9405C36.5668 19.9021 35.4799 19.0368 34.1784 18.3265C32.9126 17.6379 31.4467 17.1187 29.7805 16.7617C28.1321 16.4084 26.3086 16.2354 24.292 16.2354H10.5513L2.67798 52.0843H12.7824L16.4652 20.1905H24.3171C26.541 20.1905 28.3145 20.5727 29.6732 21.3587C31.0605 22.1591 31.8471 23.2768 32.0152 24.7298C32.1939 26.2801 31.6076 27.5456 30.2203 28.4866C28.7936 29.4529 26.8378 29.9468 24.3671 29.9468H20.6378L20.3697 35.9499H24.3993C27.0666 35.9499 29.4444 35.6507 31.5039 35.0485C33.5383 34.4609 35.1974 33.6244 36.4774 32.5644C37.7289 31.526 38.5906 30.3254 39.0733 28.9734C39.5381 27.6682 39.5989 26.2441 39.2663 24.7298C38.9338 23.2155 38.326 22.0185 37.4321 20.9477V20.9405Z" fill="white"/>
<path opacity="0.98" d="M37.2998 21.3588C36.4416 20.3276 35.3654 19.4695 34.0746 18.7665C32.8196 18.0815 31.3644 17.5695 29.7125 17.2161C28.0785 16.8664 26.2693 16.6934 24.2706 16.6934H10.6371L2.82812 52.2466H12.8503L16.5045 20.6125H24.292C26.4981 20.6125 28.2537 20.991 29.6052 21.7698C30.9782 22.563 31.7613 23.6699 31.9293 25.1121C32.1081 26.6516 31.5253 27.9063 30.1487 28.8401C28.7364 29.7991 26.7949 30.2895 24.3456 30.2895H20.645L20.3804 36.2457H24.3778C27.0237 36.2457 29.38 35.95 31.4252 35.3515C33.4418 34.7674 35.0901 33.9382 36.3594 32.889C37.6001 31.8615 38.4547 30.6681 38.9338 29.3268C39.4129 27.9856 39.4558 26.6227 39.1233 25.1157C38.8051 23.6735 38.1901 22.426 37.3033 21.3624L37.2998 21.3588Z" fill="white"/>
<path opacity="0.97" d="M37.1639 21.7772C36.3129 20.7532 35.2438 19.9023 33.9638 19.2065C32.7195 18.5286 31.275 18.0167 29.6374 17.6706C28.0177 17.3208 26.2228 17.1514 24.2419 17.1514H10.7229L2.97827 52.4054H12.9147L16.5367 21.0344H24.2598C26.448 21.0344 28.1893 21.413 29.5266 22.1846C30.8888 22.9706 31.6647 24.0702 31.8292 25.5016C32.0044 27.0267 31.4287 28.2706 30.0629 29.1972C28.6613 30.149 26.7341 30.6357 24.3063 30.6357H20.6378L20.3732 36.5414H24.3349C26.9593 36.5414 29.2941 36.2458 31.325 35.6545C33.3238 35.074 34.9578 34.2556 36.2164 33.2136C37.4463 32.1933 38.2937 31.0107 38.7693 29.6803C39.227 28.3967 39.2877 26.9978 38.9588 25.5052C38.6441 24.0738 38.0363 22.8408 37.1567 21.7844L37.1639 21.7772Z" fill="white"/>
<path opacity="0.97" d="M37.0316 22.1989C36.1877 21.1858 35.1294 20.3421 33.8601 19.6499C32.6229 18.9793 31.1963 18.4709 29.5694 18.1248C27.964 17.7786 26.1834 17.6128 24.2169 17.6128H10.8086L3.12842 52.5748H12.9826L16.576 21.4634H24.2347C26.4015 21.4634 28.1321 21.8384 29.4586 22.6027C30.8101 23.3815 31.5789 24.4739 31.7434 25.8909C31.9186 27.4052 31.3465 28.6382 29.9913 29.5576C28.6005 30.4986 26.6911 30.9818 24.2848 30.9818H20.6485L20.3875 36.837H24.317C26.9164 36.837 29.2369 36.545 31.2499 35.9573C33.2343 35.384 34.8541 34.5692 36.1019 33.5344C37.3212 32.5213 38.1614 31.3495 38.6334 30.0299C39.0875 28.7572 39.1447 27.3691 38.8229 25.8873C38.5011 24.4054 37.9076 23.2445 37.0351 22.1953L37.0316 22.1989Z" fill="white"/>
<path opacity="0.96" d="M36.8959 22.6173C36.0592 21.6113 35.008 20.7749 33.7494 20.0898C32.523 19.4228 31.1071 18.9217 29.4946 18.5792C27.9035 18.2367 26.1371 18.0708 24.1885 18.0708H10.8947L3.27881 52.7371H13.0507L16.6119 21.889H24.2064C26.3553 21.889 28.0715 22.2603 29.3873 23.0175C30.7281 23.789 31.4897 24.8707 31.6506 26.2768C31.8222 27.7767 31.2573 29.0025 29.9165 29.9111C28.5363 30.8449 26.6449 31.3244 24.2564 31.3244H20.6487L20.3913 37.1328H24.2886C26.8666 37.1328 29.1656 36.8443 31.1608 36.2603C33.1273 35.6906 34.7327 34.883 35.9698 33.859C37.1784 32.8567 38.015 31.6958 38.4799 30.3834C38.9304 29.1215 38.9876 27.7442 38.6658 26.2768C38.3583 24.8707 37.7576 23.6556 36.8923 22.6173H36.8959Z" fill="white"/>
<path opacity="0.95" d="M36.7634 23.0353C35.9339 22.0402 34.8934 21.2074 33.6456 20.5295C32.4299 19.8697 31.0247 19.3722 29.4264 19.0297C27.8461 18.6908 26.0976 18.5249 24.1633 18.5249H10.9839L3.43237 52.8992H13.122L16.6547 22.3106H24.1847C26.3157 22.3106 28.0177 22.6784 29.3192 23.4319C30.6493 24.1999 31.4037 25.2707 31.5646 26.666C31.7362 28.1514 31.1749 29.3665 29.8448 30.2714C28.4789 31.198 26.6018 31.6739 24.2348 31.6739H20.6593L20.4018 37.4318H24.267C26.8235 37.4318 29.1046 37.1434 31.0819 36.5665C33.0306 36.0005 34.6253 35.2001 35.8517 34.1833C37.053 33.1882 37.879 32.0381 38.3402 30.7401C38.7872 29.4891 38.8444 28.1226 38.5262 26.6696C38.2079 25.2166 37.6251 24.0701 36.767 23.0425L36.7634 23.0353Z" fill="white"/>
<path opacity="0.94" d="M36.6275 23.4537C35.8052 22.4658 34.7718 21.6437 33.5347 20.9695C32.3297 20.3133 30.9353 19.8194 29.3549 19.4841C27.7888 19.1488 26.0547 18.9829 24.1382 18.9829H11.0697L3.58252 53.0616H13.19L16.6904 22.7362H24.1561C26.2692 22.7362 27.9569 23.1003 29.2476 23.8467C30.567 24.6074 31.3143 25.671 31.4752 27.0519C31.6468 28.5265 31.089 29.7307 29.7697 30.6249C28.4145 31.5443 26.5517 32.013 24.2062 32.013H20.6592L20.4054 37.7204H24.2348C26.7698 37.7204 29.0295 37.4356 30.9925 36.8623C32.9269 36.3035 34.5037 35.5103 35.7229 34.5007C36.9136 33.5128 37.7324 32.3735 38.19 31.0864C38.6334 29.8461 38.6906 28.4941 38.3724 27.0483C38.0685 25.6674 37.4785 24.4704 36.6275 23.4501V23.4537Z" fill="white"/>
<path opacity="0.93" d="M36.4952 23.8717C35.68 22.891 34.6574 22.0762 33.431 21.4092C32.2368 20.7602 30.8566 20.2699 29.2869 19.9346C27.7352 19.5993 26.0153 19.437 24.1132 19.437H11.1555L3.73267 53.2236H13.2579L16.7297 23.1578H24.131C26.2263 23.1578 27.8961 23.5184 29.1797 24.2575C30.4847 25.011 31.2285 26.0638 31.3858 27.4339C31.5538 28.8941 31.0032 30.0875 29.6946 30.9744C28.3502 31.8866 26.5052 32.3517 24.1775 32.3517H20.6628L20.4089 38.0123H24.2061C26.7197 38.0123 28.9616 37.731 30.9031 37.1614C32.8196 36.6061 34.3856 35.8201 35.5906 34.8214C36.7705 33.8444 37.5822 32.7123 38.0363 31.4359C38.476 30.2065 38.5333 28.8652 38.2186 27.4339C37.904 26.0025 37.3319 24.8776 36.4916 23.8681L36.4952 23.8717Z" fill="white"/>
<path opacity="0.92" d="M36.3596 24.2899C35.5515 23.32 34.536 22.5088 33.3204 21.849C32.1369 21.2036 30.7674 20.7205 29.2121 20.3888C27.6746 20.0571 25.9691 19.8984 24.0848 19.8984H11.2415L3.88306 53.3894H13.3224L16.7621 23.5868H24.0991C26.1765 23.5868 27.8319 23.9437 29.1048 24.6793C30.3992 25.4256 31.1357 26.4712 31.293 27.8304C31.4611 29.2798 30.914 30.4624 29.6161 31.3421C28.286 32.2435 26.4553 32.7086 24.1491 32.7086H20.663L20.4127 38.3186H24.1777C26.6699 38.3186 28.8903 38.041 30.8175 37.475C32.7161 36.9233 34.2679 36.1446 35.4657 35.1531C36.6349 34.1832 37.4394 33.0619 37.8899 31.7964C38.3404 30.5309 38.3797 29.2474 38.0687 27.8304C37.7576 26.4135 37.1927 25.2958 36.356 24.2935L36.3596 24.2899Z" fill="white"/>
<path opacity="0.91" d="M36.2272 24.7084C35.4263 23.7457 34.4216 22.9453 33.2166 22.2891C32.0439 21.651 30.6852 21.1715 29.1441 20.8398C27.6174 20.5117 25.9297 20.353 24.0633 20.353H11.3273L4.0332 53.5519H13.3904L16.8014 24.0089H24.074C26.1335 24.0089 27.7747 24.3623 29.0333 25.0906C30.3169 25.8297 31.0463 26.8645 31.2036 28.2129C31.3681 29.6479 30.8282 30.8232 29.541 31.6921C28.2216 32.5863 26.4088 33.0442 24.1205 33.0442H20.6665L20.4198 38.6038H24.1527C26.6234 38.6038 28.8223 38.3262 30.7352 37.7673C32.6195 37.2229 34.157 36.4477 35.3405 35.467C36.499 34.508 37.2963 33.3939 37.7433 32.1392C38.1759 30.9314 38.2295 29.6118 37.922 28.2057C37.6253 26.8572 37.0532 25.6963 36.2237 24.7012L36.2272 24.7084Z" fill="white"/>
<path opacity="0.9" d="M36.0913 25.1267C35.2976 24.1713 34.3 23.3781 33.1058 22.7291C31.9437 22.0982 30.5958 21.6187 29.069 21.2942C27.5566 20.9697 25.8832 20.811 24.0311 20.811H11.4131L4.18335 53.7143H13.4583L16.8407 24.4345H24.049C26.0906 24.4345 27.7175 24.7878 28.9653 25.5053C30.2382 26.2372 30.9605 27.2648 31.1142 28.5988C31.2787 30.0229 30.7424 31.1839 29.4659 32.0492C28.1573 32.9361 26.3588 33.3904 24.0955 33.3904H20.6701L20.4234 38.9031H24.1205C26.5697 38.9031 28.7508 38.6291 30.6458 38.0739C32.5122 37.5331 34.0354 36.7687 35.2118 35.7953C36.3595 34.8434 37.1533 33.7401 37.5931 32.4963C38.0221 31.2993 38.0758 29.9905 37.7683 28.5988C37.4608 27.2071 36.9066 26.111 36.0842 25.1267H36.0913Z" fill="white"/>
<path opacity="0.9" d="M35.9589 25.5448C35.1723 24.6002 34.1855 23.8106 33.002 23.1688C31.8507 22.5415 30.517 22.0692 29.001 21.7447C27.5028 21.4238 25.8438 21.2651 24.0095 21.2651H11.5024L4.34058 53.8764H13.5333L16.8835 24.8562H24.0274C26.0512 24.8562 27.6637 25.2059 28.9009 25.9198C30.163 26.6481 30.8781 27.6648 31.0319 28.988C31.1964 30.3977 30.6636 31.5515 29.3979 32.406C28.0999 33.2857 26.3193 33.7364 24.0739 33.7364H20.6807L20.4376 39.1986H24.1025C26.5303 39.1986 28.6899 38.9282 30.5671 38.3766C32.4156 37.8394 33.9281 37.0822 35.0937 36.116C36.2307 35.1713 37.0173 34.0789 37.4535 32.8494C37.8897 31.62 37.9326 30.3689 37.6287 28.988C37.3391 27.6648 36.7742 26.5219 35.9589 25.5448Z" fill="white"/>
<path opacity="0.89" d="M35.8232 25.9631C35.0437 25.0257 34.0641 24.247 32.8913 23.6088C31.7507 22.9887 30.4277 22.5199 28.926 22.1991C27.4422 21.8782 25.7974 21.7231 23.9775 21.7231H11.5847L4.4873 54.0387H13.5977L16.9194 25.2817H23.9989C26.0048 25.2817 27.6031 25.6278 28.8259 26.3345C30.0738 27.0556 30.7853 28.0615 30.9355 29.3739C31.0964 30.7728 30.5708 31.9121 29.3158 32.763C28.0321 33.6355 26.2658 34.079 24.0383 34.079H20.6737L20.4306 39.4908H24.0633C26.4661 39.4908 28.6114 39.2204 30.4706 38.6759C32.3049 38.1459 33.803 37.3924 34.9544 36.437C36.0842 35.5031 36.8601 34.4179 37.2928 33.1993C37.7111 32.0203 37.7683 30.7404 37.468 29.3703C37.1783 28.0579 36.6206 26.9258 35.8161 25.9595L35.8232 25.9631Z" fill="white"/>
<path opacity="0.88" d="M35.6909 26.381C34.915 25.4508 33.9496 24.6792 32.784 24.0447C31.6541 23.4281 30.3419 22.963 28.8545 22.6494C27.3849 22.3321 25.7545 22.1807 23.9524 22.1807H11.6705L4.63745 54.2042H13.6657L16.9551 25.7068H23.9703C25.9547 25.7068 27.5423 26.0493 28.7544 26.7488C29.9915 27.4626 30.6959 28.4613 30.8461 29.7593C31.007 31.1438 30.4849 32.2759 29.2442 33.116C27.9713 33.9777 26.2229 34.4211 24.0168 34.4211H20.6844L20.4448 39.786H24.0454C26.4267 39.786 28.5506 39.5192 30.3955 38.9784C32.2119 38.452 33.6957 37.7057 34.8399 36.7611C35.9591 35.8345 36.7278 34.76 37.1604 33.5522C37.5752 32.3841 37.6288 31.1149 37.3321 29.7593C37.0353 28.4037 36.4918 27.3364 35.6945 26.3774L35.6909 26.381Z" fill="white"/>
<path opacity="0.87" d="M35.555 26.7995C34.7863 25.8802 33.828 25.1122 32.6767 24.4848C31.554 23.8755 30.2596 23.414 28.7829 23.1004C27.3241 22.7867 25.7116 22.6353 23.9238 22.6353H11.7563L4.7876 54.3631H13.73L16.9909 26.1289H23.9417C25.9082 26.1289 27.4779 26.4678 28.6828 27.1637C29.9092 27.8704 30.6065 28.8619 30.7566 30.149C30.914 31.5227 30.3955 32.644 29.1691 33.4768C27.9069 34.3313 26.1728 34.7712 23.9882 34.7712H20.688L20.452 40.0856H24.0203C26.3802 40.0856 28.4862 39.8224 30.3097 39.2852C32.1082 38.766 33.5813 38.0269 34.7112 37.0859C35.8196 36.1665 36.5812 35.1029 37.0102 33.9059C37.4214 32.7485 37.4751 31.4902 37.1819 30.149C36.8994 28.8619 36.3488 27.7478 35.5586 26.7995H35.555Z" fill="white"/>
<path opacity="0.86" d="M35.4227 27.2179C34.6611 26.3057 33.71 25.5486 32.5694 24.9248C31.4574 24.3191 30.1738 23.8648 28.7114 23.5548C27.2669 23.2447 25.6686 23.0933 23.8988 23.0933H11.8421L4.93774 54.5291H13.7979L17.0266 26.5545H23.9131C25.8617 26.5545 27.4171 26.8898 28.6113 27.5784C29.827 28.2779 30.5171 29.2586 30.6637 30.5349C30.821 31.8941 30.3061 33.0046 29.0904 33.8303C27.839 34.6775 26.1227 35.1102 23.9595 35.1102H20.6879L20.452 40.3741H23.9846C26.323 40.3741 28.4075 40.111 30.2167 39.5846C32.0009 39.069 33.4561 38.3371 34.5789 37.4069C35.6765 36.4983 36.431 35.4419 36.8565 34.2557C37.2641 33.1092 37.3177 31.8617 37.0245 30.5313C36.7456 29.255 36.2021 28.1553 35.4155 27.2143L35.4227 27.2179Z" fill="white"/>
<path opacity="0.85" d="M35.2869 27.6359C34.5324 26.7346 33.5921 25.981 32.4622 25.3645C31.3609 24.766 30.0881 24.3153 28.64 24.0053C27.2098 23.6988 25.6258 23.5474 23.8738 23.5474H11.9315L5.09155 54.6912H13.8695L17.0696 26.9797H23.8917C25.8225 26.9797 27.3635 27.3114 28.5434 27.9929C29.7484 28.6887 30.4313 29.6586 30.5779 30.9205C30.7352 32.2689 30.2239 33.3686 29.019 34.187C27.7818 35.0271 26.0799 35.4561 23.9346 35.4561H20.6951L20.4627 40.6732H23.9632C26.2801 40.6732 28.3468 40.4136 30.1381 39.8908C31.9044 39.3789 33.3489 38.6542 34.4609 37.7348C35.5479 36.8334 36.2952 35.7914 36.7171 34.6125C37.1211 33.4768 37.1747 32.2437 36.8851 30.9241C36.6062 29.6622 36.0699 28.5697 35.2904 27.6359H35.2869Z" fill="white"/>
<path opacity="0.84" d="M35.1545 28.0543C34.4072 27.1601 33.474 26.4138 32.3548 25.8045C31.2643 25.2132 30.0021 24.7625 28.5683 24.4597C27.1524 24.1532 25.5828 24.0054 23.8451 24.0054H12.0137L5.23804 54.8535H13.9337L17.1016 27.4017H23.8594C25.7723 27.4017 27.299 27.7298 28.4682 28.4076C29.6625 29.0963 30.3382 30.0589 30.4848 31.31C30.6386 32.644 30.1344 33.7329 28.9402 34.5441C27.7138 35.3769 26.0297 35.8024 23.9059 35.8024H20.695L20.4662 40.969H23.9345C26.2299 40.969 28.2752 40.713 30.0486 40.1938C31.797 39.689 33.2273 38.968 34.3285 38.0558C35.4047 37.1616 36.1485 36.1305 36.5632 34.9659C36.9637 33.841 37.0173 32.6188 36.7277 31.3136C36.4381 30.0084 35.9196 28.9809 35.1509 28.0579L35.1545 28.0543Z" fill="white"/>
<path opacity="0.83" d="M35.0187 28.4726C34.2786 27.5857 33.3561 26.8502 32.2477 26.2445C31.1679 25.6568 29.92 25.2133 28.5006 24.9105C27.0954 24.6076 25.5436 24.4634 23.8238 24.4634H12.1068L5.39551 55.0195H14.0089L17.1483 27.8309H23.8416C25.7367 27.8309 27.2491 28.159 28.4076 28.826C29.5875 29.5074 30.2597 30.4592 30.4027 31.6995C30.5565 33.0227 30.0559 34.1007 28.8724 34.9011C27.6567 35.7232 25.987 36.1486 23.8846 36.1486H20.7059L20.4771 41.2683H23.9132C26.1872 41.2683 28.2109 41.0124 29.9701 40.5004C31.7042 39.9992 33.1201 39.2854 34.2107 38.384C35.2762 37.5007 36.0127 36.4767 36.4239 35.323C36.8351 34.1692 36.8709 32.9975 36.5884 31.7031C36.3059 30.4088 35.7875 29.392 35.0259 28.4762L35.0187 28.4726Z" fill="white"/>
<path opacity="0.83" d="M34.8863 28.8905C34.1534 28.0144 33.238 27.2825 32.1403 26.684C31.0712 26.1035 29.8341 25.6636 28.4289 25.3644C27.0381 25.0651 25.497 24.9209 23.7951 24.9209H12.1889L5.54199 55.1814H14.0732L17.1839 28.2523H23.8129C25.6901 28.2523 27.1882 28.5768 28.336 29.2366C29.5052 29.9108 30.1702 30.8555 30.3132 32.0813C30.4634 33.3901 29.97 34.4573 28.7972 35.2541C27.5923 36.0689 25.9404 36.4872 23.8558 36.4872H20.7058L20.4805 41.5564H23.8809C26.1334 41.5564 28.1393 41.304 29.8806 40.7957C31.5968 40.2981 32.9985 39.595 34.0783 38.6973C35.133 37.8212 35.8625 36.808 36.2701 35.6651C36.6634 34.5619 36.7134 33.3612 36.431 32.0813C36.1485 30.8014 35.6372 29.7919 34.8828 28.8869L34.8863 28.8905Z" fill="white"/>
<path opacity="0.82" d="M34.7505 29.309C34.0247 28.4401 33.1201 27.7154 32.0331 27.1241C30.9748 26.5473 29.7484 26.1146 28.3575 25.8154C26.9809 25.5197 25.4542 25.3755 23.7701 25.3755H12.2783L5.6958 55.3439H14.1412L17.2197 28.6781H23.7844C25.6437 28.6781 27.1239 28.999 28.2609 29.6551C29.4194 30.3222 30.0773 31.256 30.2203 32.4746C30.3705 33.7726 29.8807 34.829 28.7186 35.6149C27.528 36.4226 25.8904 36.8372 23.8273 36.8372H20.7094L20.4842 41.856H23.8523C26.0834 41.856 28.0679 41.6072 29.7948 41.1024C31.4932 40.6121 32.8841 39.9126 33.9532 39.0257C35.0008 38.1568 35.7195 37.1545 36.1235 36.0224C36.5133 34.9299 36.5633 33.7401 36.2844 32.4746C36.0055 31.2091 35.4978 30.2068 34.7505 29.3126V29.309Z" fill="white"/>
<path opacity="0.81" d="M34.6182 29.7269C33.8995 28.8652 33.0021 28.1513 31.9258 27.5636C30.8782 26.994 29.6625 26.5613 28.2859 26.2693C26.9237 25.9772 25.4112 25.833 23.745 25.833H12.3641L5.84595 55.5058H14.2091L17.259 29.0995H23.7593C25.6007 29.0995 27.0667 29.4168 28.193 30.0658C29.3407 30.7256 29.9915 31.6522 30.1309 32.8564C30.2775 34.1399 29.7948 35.1891 28.6435 35.9679C27.4636 36.7683 25.8439 37.1793 23.7987 37.1793H20.7094L20.4877 42.1512H23.8237C26.0298 42.1512 27.9999 41.9025 29.7054 41.4049C31.3895 40.9182 32.7625 40.2259 33.8244 39.3498C34.8613 38.4917 35.5729 37.4966 35.9733 36.3753C36.3738 35.254 36.4095 34.1183 36.1342 32.86C35.8589 31.6017 35.3583 30.6174 34.6146 29.7269H34.6182Z" fill="white"/>
<path opacity="0.8" d="M34.4823 30.1452C33.7708 29.2943 32.884 28.5841 31.8185 28.0036C30.7816 27.4375 29.5803 27.0121 28.2144 26.7237C26.8664 26.4316 25.3683 26.291 23.7164 26.291H12.4499L5.99609 55.6718H14.277L17.2948 29.5287H23.7307C25.5542 29.5287 27.0059 29.8424 28.1214 30.4841C29.2585 31.1403 29.9021 32.0561 30.0415 33.2459C30.1881 34.5186 29.709 35.5534 28.572 36.325C27.4028 37.1182 25.8009 37.522 23.7772 37.522H20.7201L20.502 42.4434H23.8058C25.9904 42.4434 27.9391 42.1982 29.6303 41.7043C31.2965 41.2212 32.6588 40.5361 33.7064 39.6672C34.7326 38.8163 35.437 37.832 35.8339 36.7216C36.2307 35.6111 36.2665 34.4862 35.9912 33.2423C35.7159 31.9984 35.2224 31.0214 34.4895 30.1416L34.4823 30.1452Z" fill="white"/>
<path opacity="0.79" d="M34.35 30.5636C33.6456 29.7199 32.766 29.0168 31.7113 28.4436C30.6851 27.8847 29.4944 27.4629 28.1429 27.1745C26.8056 26.886 25.3254 26.749 23.6913 26.749H12.5357L6.14624 55.8341H14.3449L17.3341 29.9507H23.7057C25.5077 29.9507 26.9487 30.2607 28.0499 30.8989C29.1762 31.5479 29.8126 32.4528 29.9485 33.6354C30.0951 34.8937 29.6196 35.9213 28.4933 36.6856C27.3384 37.468 25.7473 37.8718 23.745 37.8718H20.7201L20.502 42.7428H23.77C25.9332 42.7428 27.864 42.5012 29.5373 42.0109C31.1856 41.5349 32.5336 40.8571 33.5741 39.9954C34.5896 39.1553 35.2904 38.1783 35.6801 37.0822C36.0591 36.0222 36.1056 34.8685 35.8374 33.639C35.5692 32.4096 35.0758 31.4397 34.35 30.5672V30.5636Z" fill="white"/>
<path opacity="0.78" d="M34.2143 30.9819C33.517 30.1455 32.6482 29.4532 31.6005 28.8836C30.5815 28.3283 29.4052 27.9137 28.0679 27.6289C26.745 27.344 25.279 27.207 23.6593 27.207H12.6181L6.29297 56.0001H14.4094L17.3664 30.3798H23.6736C25.4578 30.3798 26.8844 30.6863 27.975 31.3172C29.0869 31.959 29.7198 32.8568 29.8557 34.0249C29.9987 35.2688 29.5303 36.2855 28.4147 37.0427C27.2706 37.8178 25.6973 38.2181 23.7129 38.2181H20.7166L20.5021 43.0421H23.738C25.8797 43.0421 27.789 42.8006 29.4445 42.3174C31.0785 41.8451 32.4122 41.1745 33.4384 40.3236C34.4431 39.4908 35.1367 38.5245 35.5229 37.4393C35.909 36.354 35.9448 35.2472 35.6766 34.0285C35.4085 32.8099 34.9222 31.8508 34.2035 30.9891L34.2143 30.9819Z" fill="white"/>
<path opacity="0.77" d="M34.0818 31.4C33.3917 30.5743 32.53 29.8857 31.4967 29.3232C30.4884 28.7752 29.3227 28.3606 27.9998 28.0794C26.6912 27.7981 25.2395 27.6611 23.6377 27.6611H12.7073L6.44653 56.1585H14.4807L17.4091 30.7979H23.652C25.4183 30.7979 26.8306 31.1043 27.9104 31.7245C29.0117 32.359 29.6374 33.2496 29.7733 34.4033C29.9163 35.6364 29.4515 36.6423 28.3466 37.3922C27.2132 38.1602 25.6578 38.5532 23.6949 38.5532H20.7308L20.5162 43.3268H23.7199C25.8402 43.3268 27.7281 43.0888 29.3692 42.6093C30.9854 42.1406 32.3047 41.4772 33.3238 40.6335C34.3178 39.8079 35.0043 38.8524 35.3868 37.778C35.7694 36.7036 35.8052 35.6075 35.5406 34.4033C35.2867 33.246 34.7933 32.2473 34.0818 31.3964V31.4Z" fill="white"/>
<path opacity="0.76" d="M33.946 31.8183C33.2631 30.9999 32.4121 30.3185 31.386 29.7632C30.3884 29.2224 29.2371 28.8114 27.9248 28.5338C26.6305 28.2561 25.1931 28.1191 23.6056 28.1191H12.7896L6.59326 56.3245H14.5452L17.4414 31.227H23.6199C25.3683 31.227 26.7628 31.5299 27.8355 32.1464C28.926 32.7738 29.5446 33.6535 29.6769 34.8C29.8163 36.0187 29.3586 37.0174 28.2645 37.7565C27.1418 38.5172 25.6043 38.9066 23.6592 38.9066H20.7237L20.5128 43.6298H23.6843C25.7831 43.6298 27.6531 43.3954 29.2764 42.9195C30.8747 42.458 32.1833 41.7982 33.1916 40.9653C34.1749 40.1505 34.8542 39.2023 35.2332 38.1387C35.6122 37.0751 35.648 35.9934 35.3834 34.7964C35.1188 33.5994 34.6433 32.662 33.9389 31.8183H33.946Z" fill="white"/>
<path opacity="0.76" d="M33.8136 32.2364C33.1379 31.4288 32.294 30.7545 31.2822 30.2029C30.2953 29.6657 29.1547 29.2619 27.8568 28.9843C26.5732 28.7102 25.1537 28.5732 23.5841 28.5732H12.8825L6.75049 56.483H14.6166L17.4842 31.6487H23.5984C25.3289 31.6487 26.7091 31.9479 27.7674 32.5573C28.8472 33.181 29.4587 34.0499 29.591 35.182C29.7304 36.3898 29.2763 37.3741 28.1929 38.1096C27.0845 38.8632 25.5578 39.249 23.6377 39.249H20.7344L20.527 43.9252H23.6627C25.7401 43.9252 27.5887 43.6909 29.1976 43.2222C30.7816 42.7643 32.0759 42.1153 33.0699 41.2896C34.0461 40.482 34.7147 39.5482 35.0901 38.4918C35.4655 37.4354 35.5013 36.3682 35.2403 35.1856C34.9793 34.003 34.5073 33.0764 33.8136 32.24V32.2364Z" fill="white"/>
<path opacity="0.75" d="M33.6779 32.6545C33.0093 31.8541 32.1762 31.1871 31.1715 30.6427C30.1953 30.1127 29.0655 29.7125 27.7819 29.4385C26.5125 29.1645 25.1074 29.0347 23.5556 29.0347H12.9649L6.89722 56.6524H14.6811L17.5201 32.0777H23.5699C25.2826 32.0777 26.6484 32.3733 27.696 32.979C28.7651 33.5956 29.3694 34.4573 29.5017 35.5749C29.6411 36.7683 29.1906 37.7454 28.118 38.4701C27.0203 39.2128 25.5114 39.595 23.6092 39.595H20.7345L20.5271 44.2208H23.6307C25.6866 44.2208 27.5173 43.99 29.1048 43.5249C30.6709 43.0707 31.9509 42.4289 32.9378 41.6105C33.9032 40.81 34.5646 39.8871 34.9365 38.8415C35.3083 37.7959 35.3405 36.7395 35.0831 35.5713C34.8256 34.4032 34.3608 33.4838 33.6708 32.6545H33.6779Z" fill="white"/>
<path opacity="0.74" d="M33.5454 33.0731C32.884 32.2799 32.058 31.6201 31.0676 31.0829C30.1022 30.5565 28.9831 30.1599 27.7137 29.8895C26.4587 29.6191 25.0679 29.4893 23.5304 29.4893H13.0541L7.05078 56.8113H14.7525L17.5593 32.4998H23.5447C25.2395 32.4998 26.591 32.7918 27.6279 33.3903C28.6827 33.9997 29.2834 34.8505 29.4121 35.961C29.548 37.1436 29.101 38.1063 28.0427 38.8237C26.9557 39.5593 25.4647 39.9378 23.584 39.9378H20.7415L20.5377 44.5131H23.609C25.6435 44.5131 27.4527 44.286 29.026 43.8245C30.5742 43.3774 31.8435 42.7393 32.816 41.9316C33.7707 41.142 34.425 40.2263 34.7933 39.1951C35.1473 38.2 35.1937 37.1148 34.9399 35.9574C34.6967 34.8506 34.2248 33.8915 33.5418 33.0731H33.5454Z" fill="white"/>
<path opacity="0.73" d="M33.4095 33.4911C32.7552 32.7087 31.94 32.0561 30.9567 31.5189C30.0021 30.9998 28.8972 30.6068 27.6422 30.34C26.4015 30.0732 25.0249 29.9434 23.5053 29.9434H13.1399L7.20093 56.9734H14.8204L17.5986 32.9215H23.5196C25.1965 32.9215 26.5338 33.2099 27.5564 33.8012C28.6005 34.4033 29.194 35.247 29.3227 36.343C29.4586 37.5112 29.0152 38.4666 27.9712 39.1769C26.8949 39.9052 25.4218 40.2802 23.559 40.2802H20.745L20.5448 44.8086H23.584C25.5934 44.8086 27.3883 44.5815 28.9437 44.1272C30.4776 43.6837 31.729 43.0527 32.6944 42.2559C33.6384 41.4736 34.2891 40.5686 34.6502 39.5483C35.0006 38.564 35.0471 37.4895 34.7968 36.3466C34.5573 35.2506 34.0889 34.3023 33.4131 33.4947L33.4095 33.4911Z" fill="white"/>
<path opacity="0.72" d="M33.2774 33.9095C32.6302 33.1343 31.8221 32.4889 30.8532 31.9589C29.9092 31.4433 28.8151 31.0576 27.5744 30.7944C26.348 30.5312 24.9857 30.4014 23.4804 30.4014H13.2294L7.3584 57.1357H14.8956L17.6416 33.347H23.4983C25.1574 33.347 26.4803 33.6318 27.4922 34.2195C28.5255 34.8144 29.1119 35.6509 29.237 36.7325C29.3693 37.8899 28.9331 38.8345 27.8998 39.534C26.8379 40.255 25.3755 40.6228 23.5341 40.6228H20.7523L20.5521 45.1008H23.5555C25.5435 45.1008 27.317 44.8772 28.8545 44.4265C30.3705 43.9867 31.6112 43.3665 32.5659 42.5733C33.4991 41.7982 34.1427 40.904 34.5002 39.8945C34.847 38.921 34.8935 37.861 34.6432 36.7289C34.3929 35.5968 33.9424 34.7063 33.2738 33.9059L33.2774 33.9095Z" fill="white"/>
<path opacity="0.71" d="M33.1414 34.3275C32.5014 33.5595 31.704 32.9214 30.7422 32.3986C29.809 31.8902 28.7256 31.5081 27.4992 31.2449C26.2835 30.9853 24.9391 30.8555 23.4517 30.8555H13.3115L7.50488 57.2978H14.9599L17.6773 33.7687H23.4696C25.1108 33.7687 26.4158 34.0499 27.4206 34.6304C28.4432 35.2217 29.0224 36.0437 29.1475 37.1181C29.2798 38.261 28.8472 39.1949 27.8246 39.8907C26.7734 40.6046 25.3289 40.9687 23.5089 40.9687H20.7558L20.5591 45.3962H23.5304C25.4969 45.3962 27.2525 45.1763 28.7721 44.7292C30.2703 44.2966 31.4967 43.68 32.4406 42.8976C33.3631 42.1333 33.9995 41.2464 34.3535 40.2476C34.7075 39.2489 34.7397 38.2358 34.4965 37.1145C34.2605 36.0401 33.8029 35.1135 33.145 34.3239L33.1414 34.3275Z" fill="white"/>
<path opacity="0.7" d="M33.0092 34.7457C32.3763 33.9885 31.5861 33.3576 30.6386 32.8384C29.7161 32.3372 28.647 31.9551 27.4314 31.6991C26.23 31.4395 24.8999 31.3169 23.4268 31.3169H13.401L7.65869 57.4636H15.0278L17.7131 34.1976H23.4411C25.0644 34.1976 26.3551 34.4789 27.3491 35.0485C28.361 35.6326 28.9331 36.4474 29.0582 37.5074C29.1905 38.6395 28.7614 39.5625 27.7496 40.2476C26.7091 40.9506 25.2825 41.3148 23.4804 41.3148H20.7594L20.5628 45.6954H23.5018C25.4469 45.6954 27.1811 45.4791 28.6864 45.0356C30.1702 44.6066 31.3823 43.9972 32.3155 43.2257C33.2273 42.4685 33.8566 41.5924 34.2105 40.6045C34.5645 39.6166 34.5931 38.6143 34.35 37.5074C34.1069 36.4006 33.6635 35.5317 33.0127 34.7457H33.0092Z" fill="white"/>
<path opacity="0.7" d="M32.8734 35.1642C32.2477 34.4143 31.4647 33.7905 30.5279 33.2786C29.6161 32.781 28.5578 32.406 27.3564 32.1501C26.1693 31.8941 24.8535 31.7715 23.3983 31.7715H13.4834L7.80542 57.6261H15.0923L17.749 34.6198H23.4126C25.0144 34.6198 26.2945 34.8974 27.2742 35.4635C28.2753 36.0403 28.8402 36.8443 28.9618 37.8935C29.0905 39.0112 28.6686 39.9234 27.6675 40.6048C26.6377 41.3007 25.229 41.6576 23.4483 41.6576H20.7596L20.5665 45.9877H23.4734C25.397 45.9877 27.1097 45.7714 28.6007 45.3352C30.0666 44.9097 31.2644 44.3076 32.1869 43.5433C33.088 42.7933 33.7101 41.928 34.0605 40.9509C34.3966 40.0099 34.4395 38.9824 34.1999 37.8899C33.9604 36.7975 33.5242 35.9358 32.877 35.1606L32.8734 35.1642Z" fill="white"/>
<path opacity="0.69" d="M32.741 35.5826C32.1224 34.8398 31.3501 34.2233 30.4204 33.7185C29.5158 33.2282 28.4718 32.8568 27.2847 32.6045C26.1119 32.3521 24.8104 32.2295 23.3731 32.2295H13.5726L7.95898 57.7885H15.1637L17.7881 35.0453H23.3874C24.9713 35.0453 26.2371 35.3194 27.206 35.8782C28.1929 36.4479 28.7578 37.2447 28.8758 38.283C29.0045 39.3899 28.5862 40.2913 27.5958 40.9619C26.5803 41.6505 25.1823 42.0038 23.4231 42.0038H20.7629L20.5734 46.2835H23.4482C25.3503 46.2835 27.0451 46.0708 28.5147 45.6417C29.9628 45.2235 31.1498 44.625 32.0616 43.8715C32.9555 43.1323 33.5669 42.2743 33.9137 41.3116C34.2605 40.3489 34.2892 39.3647 34.0496 38.283C33.81 37.2014 33.381 36.3505 32.741 35.5862V35.5826Z" fill="white"/>
<path opacity="0.68" d="M32.6052 36.0006C31.9938 35.2687 31.2286 34.6594 30.3133 34.1582C29.4194 33.6715 28.3861 33.3073 27.2133 33.055C26.0513 32.8062 24.7677 32.6836 23.3446 32.6836H13.6549L8.10571 57.9505H15.2282L17.824 35.467H23.3589C24.925 35.467 26.1764 35.7374 27.1347 36.289C28.1108 36.8515 28.6686 37.6411 28.7866 38.665C28.9117 39.7575 28.5005 40.6516 27.5208 41.315C26.5161 41.9964 25.1359 42.3462 23.3947 42.3462H20.7667L20.5771 46.579H23.4161C25.2968 46.579 26.9702 46.3699 28.4254 45.9444C29.8592 45.5298 31.0284 44.9421 31.933 44.1922C32.8162 43.4603 33.424 42.613 33.7637 41.6611C34.1034 40.7093 34.1355 39.7394 33.8996 38.6686C33.6636 37.5978 33.2381 36.7577 32.6052 36.0006Z" fill="white"/>
<path opacity="0.67" d="M32.473 36.4189C31.8687 35.6943 31.1143 35.0921 30.2061 34.5982C29.3229 34.1187 28.3039 33.7545 27.1419 33.5094C25.9941 33.2642 24.7248 33.1416 23.3196 33.1416H13.7444L8.25952 58.1129H15.2997L17.867 35.8926H23.3375C24.8857 35.8926 26.1228 36.1594 27.0704 36.7074C28.0358 37.2626 28.5864 38.0414 28.7008 39.0545C28.8259 40.1362 28.4183 41.0159 27.4494 41.6721C26.4554 42.3463 25.0931 42.6888 23.3733 42.6888H20.7739L20.5879 46.8711H23.3947C25.254 46.8711 26.9095 46.662 28.3468 46.2438C29.7627 45.8328 30.9212 45.2523 31.8115 44.5132C32.6839 43.7921 33.2846 42.952 33.6207 42.011C33.9568 41.07 33.9854 40.1109 33.7566 39.0545C33.5278 37.9981 33.1023 37.1653 32.4801 36.4189H32.473Z" fill="white"/>
<path opacity="0.66" d="M32.337 36.8368C31.7399 36.1229 30.9926 35.5244 30.0987 35.0377C29.2263 34.5618 28.218 34.2048 27.0702 33.9597C25.9368 33.7145 24.6818 33.5991 23.2909 33.5991H13.8265L8.40601 58.2784H15.364L17.899 36.3176H23.3052C24.8355 36.3176 26.0548 36.5808 26.9916 37.1216C27.9463 37.6733 28.4897 38.4412 28.6042 39.4435C28.7257 40.5108 28.3253 41.3833 27.367 42.0322C26.3873 42.6957 25.0394 43.0382 23.3374 43.0382H20.7702L20.5842 47.1736H23.3589C25.1931 47.1736 26.8307 46.9681 28.2502 46.5535C29.6482 46.1497 30.7924 45.5728 31.6755 44.8445C32.5372 44.1306 33.1308 43.305 33.4633 42.3712C33.7958 41.4374 33.8244 40.4927 33.5956 39.4471C33.3668 38.4016 32.9484 37.5795 32.3334 36.8404L32.337 36.8368Z" fill="white"/>
<path opacity="0.65" d="M32.2048 37.2552C31.6148 36.5485 30.8782 35.9608 29.9915 35.4777C29.1298 35.009 28.1322 34.6556 26.9988 34.4141C25.8797 34.1725 24.639 34.0571 23.266 34.0571H13.916L8.55981 58.4407H15.432L17.9384 36.7432H23.2803C24.7927 36.7432 25.9977 37.0028 26.9237 37.5364C27.8677 38.0808 28.404 38.8416 28.5184 39.8294C28.64 40.8858 28.2431 41.7439 27.2991 42.3857C26.3302 43.0419 24.9965 43.3808 23.3196 43.3808H20.781L20.5986 47.4658H23.341C25.1538 47.4658 26.7735 47.2639 28.1751 46.8528C29.5589 46.4526 30.6887 45.883 31.5576 45.1619C32.4086 44.4552 32.995 43.6404 33.3239 42.7174C33.6529 41.7944 33.6815 40.8606 33.4562 39.8294C33.2309 38.7983 32.8162 37.9871 32.2083 37.2552H32.2048Z" fill="white"/>
<path opacity="0.64" d="M32.0689 37.6735C31.4861 36.974 30.7567 36.3936 29.8842 35.9177C29.0332 35.4562 28.0464 35.1064 26.9273 34.8685C25.8188 34.6305 24.596 34.5151 23.2409 34.5151H14.0017L8.70996 58.6067H15.4999L17.9741 37.1687H23.2516C24.7462 37.1687 25.9368 37.4247 26.8522 37.9547C27.7854 38.4919 28.3146 39.2419 28.4254 40.2189C28.547 41.2609 28.1537 42.1118 27.2205 42.7428C26.2622 43.3917 24.9464 43.7234 23.2874 43.7234H20.7809L20.6022 47.7579H23.3088C25.1002 47.7579 26.6984 47.556 28.0857 47.1522C29.4516 46.7556 30.5671 46.1968 31.4289 45.4829C32.2691 44.787 32.8483 43.9794 33.1737 43.0672C33.4991 42.1551 33.5277 41.2357 33.3024 40.2153C33.0772 39.195 32.6696 38.3946 32.0689 37.6735Z" fill="white"/>
<path opacity="0.63" d="M31.9366 38.0916C31.3609 37.4029 30.6422 36.826 29.7769 36.3573C28.9367 35.8994 27.9641 35.5533 26.8557 35.319C25.7616 35.0846 24.5531 34.9692 23.2123 34.9692H14.0875L8.86011 58.7652H15.5678L18.0135 37.5904H23.2266C24.7033 37.5904 25.8796 37.8464 26.7806 38.3656C27.6996 38.8956 28.2252 39.6383 28.336 40.6045C28.454 41.6357 28.0678 42.4758 27.1453 43.0995C26.1978 43.7413 24.8999 44.0694 23.2588 44.0694H20.7809L20.6021 48.057H23.2766C25.0465 48.057 26.6233 47.8587 27.9927 47.4585C29.3407 47.0691 30.4456 46.5139 31.2965 45.8108C32.1261 45.1222 32.6981 44.3254 33.0199 43.4276C33.3417 42.5299 33.3703 41.6177 33.1487 40.6082C32.927 39.5986 32.5265 38.809 31.9294 38.0952L31.9366 38.0916Z" fill="white"/>
<path opacity="0.63" d="M31.8007 38.5099C31.2322 37.8285 30.5207 37.2624 29.6697 36.7973C28.8402 36.3466 27.8784 36.0041 26.7879 35.7734C25.708 35.5426 24.5102 35.4272 23.1909 35.4272H14.177L9.01392 58.9311H15.6394L18.0528 38.016H23.2016C24.6604 38.016 25.8225 38.2683 26.7128 38.7803C27.621 39.3031 28.1394 40.0386 28.2467 40.9904C28.3647 42.0072 27.9821 42.8364 27.0703 43.453C26.1371 44.0875 24.8535 44.412 23.2338 44.412H20.7881L20.6129 48.3492H23.2552C25.0037 48.3492 26.5626 48.1545 27.9141 47.7579C29.2478 47.3721 30.3348 46.824 31.175 46.1282C31.9938 45.4468 32.5588 44.6608 32.877 43.7738C33.1952 42.8869 33.2202 41.9855 33.0021 40.9904C32.784 39.9953 32.3871 39.213 31.8007 38.5099Z" fill="white"/>
<path opacity="0.62" d="M31.6684 38.9279C31.1071 38.2537 30.4063 37.6949 29.5624 37.237C28.7436 36.7899 27.7926 36.4546 26.7163 36.2239C25.6508 35.9931 24.4673 35.8813 23.1622 35.8813H14.2628L9.16406 59.0896H15.7073L18.0922 38.4376H23.1765C24.6175 38.4376 25.7652 38.6864 26.6448 39.1948C27.5423 39.7139 28.0536 40.435 28.1608 41.376C28.2752 42.382 27.8962 43.2004 26.9988 43.8097C26.0763 44.4371 24.807 44.7543 23.2087 44.7543H20.7952L20.62 48.641H23.2302C24.9572 48.641 26.4946 48.4463 27.8319 48.0569C29.1477 47.6747 30.2239 47.1339 31.0534 46.4489C31.8651 45.7783 32.4229 44.9995 32.7339 44.1234C33.045 43.2473 33.0736 42.3567 32.8591 41.376C32.6445 40.3954 32.2512 39.6202 31.672 38.9243L31.6684 38.9279Z" fill="white"/>
<path opacity="0.61" d="M31.5325 39.3466C30.9783 38.6832 30.2847 38.128 29.4551 37.6773C28.6471 37.2374 27.7067 36.9057 26.6448 36.6786C25.5936 36.4514 24.4244 36.3433 23.1372 36.3433H14.3485L9.31421 59.2595H15.7752L18.1315 38.8671H23.1515C24.571 38.8671 25.708 39.1122 26.5768 39.6134C27.4636 40.1254 27.9677 40.8392 28.075 41.7695C28.1894 42.7609 27.814 43.5686 26.9272 44.1707C26.0155 44.7872 24.7641 45.1045 23.1872 45.1045H20.8024L20.6307 48.9443H23.2051C24.9107 48.9443 26.4303 48.7532 27.7496 48.3674C29.0475 47.9924 30.113 47.4588 30.9283 46.781C31.7292 46.1176 32.2798 45.3497 32.5873 44.4843C32.8948 43.619 32.9234 42.7393 32.7089 41.7695C32.4943 40.7996 32.1082 40.0352 31.5361 39.3502L31.5325 39.3466Z" fill="white"/>
<path opacity="0.6" d="M31.4002 39.7646C30.8532 39.1085 30.1702 38.564 29.3479 38.117C28.5469 37.6807 27.6245 37.3526 26.5732 37.1291C25.5328 36.9055 24.3814 36.7974 23.1086 36.7974H14.4343L9.46436 59.4179H15.8395L18.1636 39.2887H23.1193C24.5209 39.2887 25.64 39.5303 26.4982 40.0242C27.3742 40.529 27.8712 41.2357 27.9749 42.1514C28.0893 43.1285 27.7174 43.9289 26.8414 44.5238C25.9404 45.1331 24.7068 45.4468 23.1479 45.4468H20.7952L20.6271 49.2361H23.1693C24.8534 49.2361 26.3516 49.0487 27.6531 48.6665C28.9367 48.2951 29.9843 47.7687 30.7924 47.0981C31.5826 46.4419 32.126 45.6848 32.43 44.8303C32.7339 43.9758 32.7625 43.1105 32.5515 42.1514C32.3406 41.1924 31.958 40.4425 31.3931 39.7646H31.4002Z" fill="white"/>
<path opacity="0.59" d="M31.2642 40.183C30.7243 39.534 30.0485 38.9968 29.2369 38.5569C28.4467 38.1279 27.535 37.8034 26.498 37.5835C25.4719 37.3635 24.3349 37.2554 23.0798 37.2554H14.5165L9.61084 59.5839H15.9038L18.1993 39.7143H23.0906C24.4743 39.7143 25.5791 39.9522 26.4265 40.4426C27.2882 40.9401 27.7817 41.636 27.8854 42.5409C27.9962 43.5072 27.6315 44.2968 26.7662 44.8809C25.8795 45.483 24.6602 45.7895 23.1228 45.7895H20.7987L20.6306 49.5283H23.1406C24.8032 49.5283 26.2835 49.3408 27.5671 48.9658C28.8329 48.5981 29.8698 48.0789 30.6671 47.4191C31.4466 46.7737 31.9829 46.0238 32.2832 45.1801C32.5836 44.3365 32.6122 43.482 32.4048 42.5373C32.1974 41.5927 31.8184 40.85 31.2642 40.1794V40.183Z" fill="white"/>
<path opacity="0.58" d="M31.1321 40.6012C30.5993 39.9631 29.9343 39.4295 29.1334 38.9932C28.3539 38.5714 27.4529 38.2505 26.4303 38.0305C25.4184 37.8142 24.2957 37.7061 23.0585 37.7061H14.6096L9.76831 59.7389H15.979L18.2423 40.1325H23.0693C24.4351 40.1325 25.5257 40.3669 26.3623 40.85C27.2133 41.3403 27.6996 42.029 27.8033 42.9231C27.9141 43.875 27.553 44.6537 26.6984 45.2342C25.8224 45.8291 24.6175 46.132 23.1014 46.132H20.8095L20.6451 49.8239H23.1229C24.7605 49.8239 26.2229 49.6401 27.4922 49.2687C28.7401 48.9082 29.7627 48.3926 30.5493 47.7436C31.318 47.1054 31.8472 46.3663 32.144 45.5371C32.4407 44.7078 32.4657 43.8605 32.2619 42.9267C32.0581 41.9929 31.6863 41.261 31.1357 40.6012H31.1321Z" fill="white"/>
<path opacity="0.57" d="M30.9963 41.0196C30.4707 40.3886 29.8128 39.8658 29.0226 39.4332C28.2538 39.0149 27.3635 38.7013 26.3552 38.4849C25.3576 38.2686 24.2492 38.1641 23.0264 38.1641H14.6883L9.91138 59.9049H16.0398L18.2745 40.5581H23.0371C24.3851 40.5581 25.4613 40.7888 26.2837 41.2647C27.124 41.7479 27.6031 42.4257 27.7032 43.309C27.8105 44.2501 27.4565 45.018 26.6162 45.5877C25.751 46.1754 24.5639 46.4746 23.0657 46.4746H20.8024L20.6415 50.1161H23.0836C24.6998 50.1161 26.1443 49.9358 27.3921 49.5681C28.6257 49.2111 29.634 48.7064 30.4099 48.061C31.1679 47.4337 31.6899 46.7018 31.9831 45.8833C32.2763 45.0649 32.3013 44.2284 32.1011 43.309C31.9009 42.3896 31.5326 41.6649 30.9891 41.0124L30.9963 41.0196Z" fill="white"/>
<path opacity="0.56" d="M30.8639 41.4377C30.3454 40.8176 29.6982 40.2984 28.9188 39.873C28.1608 39.462 27.2848 39.1483 26.2872 38.9392C25.3003 38.7264 24.2098 38.6255 23.0049 38.6255H14.7811L10.0686 60.0707H16.1148L18.3173 40.9871H23.0156C24.3457 40.9871 25.4076 41.2178 26.2193 41.6865C27.0488 42.166 27.5207 42.833 27.6209 43.702C27.7281 44.6286 27.3777 45.3857 26.5482 45.9517C25.6937 46.5286 24.5245 46.8279 23.0478 46.8279H20.8166L20.6557 50.4189H23.0656C24.6603 50.4189 26.0834 50.2386 27.3169 49.8781C28.5326 49.5247 29.5266 49.0272 30.2918 48.3926C31.0391 47.7725 31.5575 47.055 31.8436 46.2438C32.1296 45.4326 32.1582 44.6105 31.958 43.702C31.7577 42.7934 31.3966 42.0795 30.8603 41.4377H30.8639Z" fill="white"/>
<path opacity="0.56" d="M30.728 41.8558C30.2167 41.2429 29.5767 40.7309 28.808 40.3127C28.0607 39.9052 27.1954 39.5988 26.2121 39.3897C25.2396 39.1805 24.1634 39.0796 22.9727 39.0796H14.8599L10.2117 60.2327H16.1756L18.3496 41.4087H22.9834C24.2957 41.4087 25.3433 41.6358 26.1442 42.0973C26.963 42.5697 27.4278 43.2295 27.5244 44.0875C27.6316 45.0033 27.2848 45.7497 26.466 46.3049C25.6258 46.8746 24.4709 47.1666 23.0121 47.1666H20.8095L20.6522 50.7107H23.0299C24.6032 50.7107 26.0048 50.5341 27.224 50.1771C28.4254 49.831 29.4051 49.3371 30.1595 48.7133C30.8997 48.1004 31.4074 47.3937 31.6899 46.5933C31.9723 45.7929 32.0009 44.9853 31.8043 44.0875C31.6076 43.1898 31.2501 42.4867 30.7209 41.8558H30.728Z" fill="white"/>
<path opacity="0.55" d="M30.5957 42.2741C30.0916 41.6684 29.4587 41.1673 28.7043 40.7526C27.9677 40.3524 27.1132 40.0496 26.1442 39.8441C25.186 39.6385 24.124 39.5376 22.9513 39.5376H14.9528L10.3726 60.3951H16.2507L18.3925 41.8343H22.962C24.2563 41.8343 25.2861 42.0578 26.0798 42.5121C26.8879 42.9772 27.3456 43.6262 27.4421 44.4734C27.5458 45.3748 27.2061 46.1139 26.3981 46.6619C25.5685 47.2244 24.4279 47.5128 22.9942 47.5128H20.8238L20.6665 51.0065H23.012C24.5638 51.0065 25.9475 50.8334 27.1489 50.4801C28.3324 50.1376 29.2978 49.6509 30.0415 49.0343C30.7709 48.4322 31.2715 47.7328 31.5504 46.9432C31.8293 46.1536 31.8579 45.3568 31.6612 44.4734C31.4646 43.5901 31.1142 42.8943 30.5957 42.2705V42.2741Z" fill="white"/>
<path opacity="0.54" d="M30.4599 42.6922C29.9629 42.0973 29.3408 41.5997 28.5935 41.1923C27.8677 40.7957 27.0274 40.5001 26.0692 40.2946C25.1252 40.0927 24.0776 39.9917 22.9191 39.9917H15.0315L10.5156 60.5571H16.3116L18.4247 42.2559H22.9298C24.2063 42.2559 25.2218 42.4758 26.0012 42.9265C26.795 43.3844 27.2491 44.0262 27.3456 44.859C27.4493 45.7496 27.1132 46.4743 26.3159 47.0151C25.4971 47.5703 24.3744 47.8552 22.9585 47.8552H20.8203L20.6665 51.2984H22.9799C24.5102 51.2984 25.8725 51.1253 27.056 50.7792C28.2216 50.4403 29.1763 49.9607 29.9093 49.355C30.628 48.7601 31.1214 48.0715 31.3967 47.2927C31.672 46.5139 31.697 45.728 31.5075 44.8554C31.318 43.9829 30.9676 43.3015 30.4563 42.685L30.4599 42.6922Z" fill="white"/>
<path opacity="0.53" d="M30.3275 43.1105C29.8377 42.5228 29.2227 42.0325 28.4897 41.6323C27.7746 41.2429 26.9451 40.9473 26.0011 40.749C25.0715 40.5471 24.0382 40.4497 22.8976 40.4497H15.1244L10.6729 60.7195H16.3865L18.4711 42.6815H22.9119C24.1705 42.6815 25.1716 42.8978 25.9403 43.3413C26.7234 43.792 27.1703 44.4265 27.2633 45.2485C27.3634 46.1247 27.0345 46.8422 26.2478 47.3722C25.4434 47.9202 24.3349 48.1978 22.9369 48.1978H20.8273L20.6772 51.5941H22.9548C24.4637 51.5941 25.8081 51.4247 26.9737 51.0822C28.125 50.7505 29.0618 50.2781 29.7876 49.676C30.4956 49.0883 30.9818 48.4105 31.2572 47.6462C31.5325 46.8818 31.5539 46.103 31.3644 45.2449C31.1749 44.3868 30.8317 43.7126 30.3275 43.1033V43.1105Z" fill="white"/>
<path opacity="0.52" d="M30.1918 43.5289C29.7091 42.9484 29.1048 42.4689 28.379 42.0723C27.6746 41.6865 26.8558 41.3981 25.9262 41.1998C25.0073 41.0015 23.9918 40.9077 22.8691 40.9077H15.2067L10.8196 60.8855H16.451L18.5034 43.107H22.8798C24.1205 43.107 25.1074 43.3198 25.8654 43.756C26.6377 44.2031 27.0775 44.8232 27.1705 45.6344C27.2706 46.4998 26.9452 47.2028 26.1693 47.7292C25.3755 48.2664 24.285 48.544 22.9084 48.544H20.8311L20.6809 51.8899H22.9263C24.4137 51.8899 25.7367 51.724 26.888 51.3887C28.0214 51.0606 28.9475 50.5955 29.659 50.0042C30.3563 49.4274 30.8354 48.7568 31.1071 48.0032C31.3789 47.2497 31.4003 46.4817 31.2144 45.6381C31.0285 44.7944 30.6924 44.1274 30.1918 43.5289Z" fill="white"/>
<path opacity="0.51" d="M30.0594 43.9467C29.5838 43.3771 28.9867 42.9012 28.2752 42.5118C27.578 42.1332 26.7735 41.8484 25.8617 41.6537C24.9571 41.459 23.956 41.3652 22.8476 41.3652H15.2996L10.9768 61.0473H16.526L18.5498 43.5321H22.8619C24.0811 43.5321 25.0572 43.7412 25.8045 44.1739C26.5661 44.6137 26.9987 45.2267 27.0917 46.0235C27.1918 46.8743 26.87 47.5702 26.1049 48.0858C25.3218 48.6158 24.2456 48.8898 22.8905 48.8898H20.8417L20.6951 52.1852H22.9083C24.3743 52.1852 25.6794 52.0193 26.8092 51.6912C27.9248 51.3667 28.8366 50.9088 29.5409 50.3284C30.2274 49.7587 30.703 49.0989 30.9676 48.3562C31.2322 47.6135 31.2572 46.8599 31.0748 46.0235C30.8925 45.187 30.56 44.5344 30.0665 43.9467H30.0594Z" fill="white"/>
<path opacity="0.5" d="M29.9271 44.3653C29.4587 43.8028 28.8723 43.3341 28.1679 42.9519C27.4814 42.5806 26.6912 42.2993 25.7902 42.1047C24.8999 41.9136 23.913 41.8198 22.8225 41.8198H15.3854L11.127 61.2099H16.5939L18.5855 43.9542H22.8332C24.0346 43.9542 24.9964 44.1634 25.7294 44.5852C26.4803 45.0179 26.9057 45.6236 26.9951 46.4096C27.0917 47.2496 26.777 47.9347 26.0226 48.443C25.2503 48.9658 24.1919 49.2326 22.8583 49.2326H20.8417L20.6951 52.4811H22.8761C24.3171 52.4811 25.6043 52.3189 26.7198 51.9944C27.8211 51.6771 28.7185 51.2228 29.4086 50.6496C30.0844 50.0871 30.5528 49.4381 30.8138 48.7062C31.0748 47.9743 31.0998 47.2316 30.9175 46.4096C30.7351 45.5875 30.4098 44.9421 29.9271 44.3617V44.3653Z" fill="white"/>
<path opacity="0.49" d="M29.7913 44.7836C29.3301 44.2284 28.7509 43.7705 28.0572 43.3919C27.3814 43.0242 26.602 42.7465 25.7152 42.5591C24.8392 42.3716 23.8667 42.2778 22.7905 42.2778H15.4678L11.2737 61.3723H16.6548L18.6178 44.3798H22.8012C23.9847 44.3798 24.9286 44.5853 25.6544 45.0035C26.3946 45.429 26.8129 46.0239 26.9023 46.7991C26.9988 47.6247 26.6878 48.2989 25.9476 48.8001C25.1896 49.3157 24.1456 49.5788 22.8298 49.5788H20.8418L20.6988 52.7769H22.8441C24.2636 52.7769 25.5293 52.6182 26.6306 52.2974C27.714 51.9837 28.5971 51.5402 29.28 50.9742C29.9451 50.4225 30.4063 49.7808 30.6638 49.0597C30.9212 48.3386 30.9427 47.6067 30.7675 46.7991C30.5922 45.9914 30.2669 45.3533 29.7913 44.7836Z" fill="white"/>
<path opacity="0.49" d="M29.6588 45.2015C29.2048 44.6571 28.6363 44.2028 27.9533 43.8314C27.2883 43.4709 26.5195 43.1968 25.6471 43.013C24.7818 42.8255 23.8272 42.7354 22.7688 42.7354H15.557L11.4272 61.5377H16.7262L18.657 44.8049H22.776C23.9416 44.8049 24.8712 45.0068 25.5863 45.4178C26.3122 45.836 26.7269 46.4237 26.8163 47.1845C26.9093 47.9993 26.6018 48.6627 25.8759 49.1566C25.1287 49.665 24.1025 49.9246 22.8081 49.9246H20.8523L20.7129 53.0758H22.826C24.2241 53.0758 25.4719 52.9207 26.5553 52.6034C27.6208 52.2934 28.4932 51.8571 29.1654 51.3019C29.8233 50.7575 30.2738 50.1265 30.5277 49.4162C30.7816 48.706 30.803 47.9849 30.6278 47.1881C30.4526 46.3913 30.1344 45.7675 29.666 45.2015H29.6588Z" fill="white"/>
<path opacity="0.48" d="M29.523 45.6198C29.076 45.0826 28.5147 44.6355 27.8425 44.2714C27.1881 43.9144 26.4301 43.6476 25.572 43.4638C24.721 43.2799 23.7807 43.1934 22.7402 43.1934H15.6428L11.5774 61.7001H16.7941L18.6963 45.2304H22.7509C23.8987 45.2304 24.814 45.4287 25.5148 45.8325C26.2299 46.2436 26.6375 46.824 26.7233 47.574C26.8163 48.3744 26.5124 49.027 25.7973 49.5137C25.0607 50.0113 24.0488 50.2672 22.7759 50.2672H20.8487L20.7093 53.3679H22.7902C24.1668 53.3679 25.3932 53.2129 26.4587 52.9028C27.5099 52.6 28.3645 52.1673 29.026 51.6193C29.6731 51.0821 30.1165 50.4619 30.3668 49.7661C30.6171 49.0702 30.6385 48.3564 30.4669 47.574C30.2953 46.7916 29.9806 46.1751 29.5194 45.6198H29.523Z" fill="white"/>
<path opacity="0.47" d="M29.3909 46.0382C28.9511 45.5118 28.4005 45.0719 27.739 44.7114C27.0954 44.3616 26.3517 44.0984 25.5043 43.9182C24.6676 43.7379 23.7415 43.6514 22.7154 43.6514H15.7288L11.7278 61.8661H16.8622L18.7322 45.6596H22.7225C23.8524 45.6596 24.7534 45.8543 25.4435 46.2545C26.1479 46.6619 26.5483 47.228 26.6342 47.9671C26.7235 48.7567 26.4268 49.3984 25.7224 49.878C24.9966 50.3683 24.0026 50.6207 22.7476 50.6207H20.8525L20.7167 53.6709H22.7654C24.1206 53.6709 25.3291 53.5195 26.3767 53.213C27.41 52.9137 28.2539 52.4883 28.9046 51.9511C29.5411 51.4247 29.9773 50.8154 30.224 50.1267C30.4707 49.4381 30.4921 48.7423 30.3205 47.9707C30.1489 47.1991 29.845 46.5934 29.3873 46.049L29.3909 46.0382Z" fill="white"/>
<path opacity="0.46" d="M29.255 46.4562C28.8223 45.937 28.2789 45.5044 27.6281 45.151C26.9953 44.8049 26.2623 44.5453 25.4292 44.3687C24.6068 44.192 23.695 44.1055 22.6867 44.1055H15.8146L11.8779 62.0245H16.9301L18.7715 46.0776H22.6975C23.8095 46.0776 24.6962 46.2687 25.3755 46.6617C26.0692 47.0619 26.4625 47.6208 26.5447 48.3455C26.6341 49.1206 26.3409 49.7552 25.6473 50.2239C24.9358 50.707 23.9561 50.9558 22.7225 50.9558H20.8561L20.7238 53.9591H22.7368C24.0705 53.9591 25.2575 53.8113 26.2909 53.5085C27.3063 53.2128 28.1394 52.7982 28.7759 52.2682C29.4016 51.749 29.8306 51.1505 30.0738 50.4727C30.3169 49.7949 30.3384 49.1098 30.1703 48.3491C30.0023 47.5883 29.7019 46.9934 29.255 46.4562Z" fill="white"/>
<path opacity="0.45" d="M29.1227 46.8746C28.6972 46.3626 28.1644 45.9371 27.5244 45.591C26.9023 45.2521 26.18 44.9961 25.3612 44.8231C24.5531 44.65 23.6557 44.5635 22.6617 44.5635H15.9004L12.0281 62.1905H16.9981L18.8108 46.5068H22.6724C23.7665 46.5068 24.639 46.6943 25.3076 47.0801C25.9905 47.4731 26.3767 48.0211 26.4589 48.7386C26.5483 49.5029 26.2587 50.1231 25.5757 50.5882C24.8749 51.0641 23.9131 51.3057 22.6974 51.3057H20.8632L20.7309 54.2585H22.7117C24.024 54.2585 25.1932 54.1107 26.205 53.815C27.2062 53.5266 28.0214 53.1156 28.6507 52.5928C29.2657 52.0844 29.6912 51.4931 29.9272 50.8261C30.1631 50.1591 30.1846 49.4849 30.0201 48.7386C29.8556 47.9923 29.5589 47.4046 29.1191 46.8782L29.1227 46.8746Z" fill="white"/>
<path opacity="0.44" d="M28.9868 47.2926C28.5684 46.7915 28.0428 46.3732 27.4135 46.0307C26.8021 45.699 26.0906 45.4466 25.2861 45.2736C24.4888 45.1005 23.6092 45.0176 22.6331 45.0176H15.9862L12.1782 62.3489H17.0624L18.843 46.9249H22.6402C23.7164 46.9249 24.571 47.1087 25.2289 47.4909C25.8975 47.8767 26.2801 48.4175 26.3623 49.1206C26.4481 49.8705 26.1657 50.4834 25.4935 50.9377C24.8034 51.4064 23.8559 51.6444 22.6652 51.6444H20.8632L20.7345 54.5468H22.6831C23.9739 54.5468 25.1216 54.4025 26.1192 54.1105C27.1025 53.8257 27.907 53.4219 28.5255 52.9099C29.1298 52.4087 29.5481 51.8283 29.7805 51.1721C30.0129 50.5159 30.0344 49.8525 29.8735 49.1206C29.7126 48.3887 29.4194 47.8082 28.9868 47.2926Z" fill="white"/>
<path opacity="0.43" d="M28.8544 47.711C28.4433 47.217 27.9284 46.806 27.3098 46.4671C26.7091 46.139 26.0119 45.8938 25.2181 45.7244C24.4351 45.5549 23.5698 45.4756 22.608 45.4756H16.0719L12.3284 62.5149H17.1303L18.8823 47.354H22.6152C23.6735 47.354 24.5138 47.5379 25.1609 47.9093C25.8188 48.2878 26.1943 48.8214 26.2729 49.5101C26.3587 50.2456 26.0798 50.8477 25.4184 51.2948C24.7426 51.7527 23.8094 51.9906 22.6366 51.9906H20.8631L20.7344 54.8461H22.6509C23.9202 54.8461 25.0501 54.7055 26.0298 54.4171C26.9952 54.1359 27.7854 53.7393 28.3932 53.2381C28.9867 52.7442 29.3979 52.1745 29.6268 51.5291C29.8556 50.8837 29.8771 50.2312 29.7197 49.5101C29.5624 48.789 29.2728 48.2229 28.8473 47.711H28.8544Z" fill="white"/>
<path opacity="0.42" d="M28.7186 48.1295C28.3145 47.6428 27.8068 47.239 27.199 46.9073C26.609 46.5864 25.9225 46.3412 25.143 46.1753C24.3743 46.0095 23.5197 45.9302 22.5794 45.9302H16.1577L12.4785 62.6738H17.1982L18.918 47.7726H22.5865C23.6234 47.7726 24.453 47.9528 25.0894 48.317C25.7366 48.6919 26.1048 49.2111 26.1835 49.8926C26.2657 50.6173 25.994 51.2085 25.3468 51.6484C24.6818 52.0991 23.7665 52.3298 22.6116 52.3298H20.8703L20.7451 55.1349H22.6259C23.8701 55.1349 24.9821 54.9943 25.9475 54.713C26.8986 54.439 27.6745 54.0496 28.2716 53.5521C28.8544 53.069 29.2585 52.5065 29.4837 51.8756C29.709 51.2446 29.7304 50.6028 29.5731 49.8926C29.4158 49.1823 29.1333 48.627 28.715 48.1259L28.7186 48.1295Z" fill="white"/>
<path opacity="0.42" d="M28.5863 48.5474C28.1894 48.0714 27.6924 47.6712 27.0953 47.3467C26.5125 47.0295 25.8403 46.7915 25.0752 46.6293C24.3207 46.467 23.4805 46.3877 22.558 46.3877H16.2472L12.6323 62.8393H17.2698L18.961 48.2012H22.5651C23.5842 48.2012 24.3994 48.3779 25.0215 48.7384C25.658 49.1062 26.0191 49.6182 26.0978 50.2852C26.18 50.9954 25.9118 51.5795 25.2754 52.0086C24.6211 52.452 23.7236 52.6792 22.5902 52.6792H20.8775L20.7559 55.4337H22.6045C23.8273 55.4337 24.9178 55.2967 25.8653 55.0191C26.7986 54.7487 27.5601 54.3665 28.1465 53.8798C28.7222 53.4039 29.1155 52.8523 29.3372 52.2321C29.5589 51.612 29.5767 50.981 29.4266 50.2852C29.2764 49.5893 28.9939 49.0413 28.5863 48.5474Z" fill="white"/>
<path opacity="0.41" d="M28.4504 48.9657C28.0607 48.497 27.5708 48.1076 26.9845 47.7867C26.4124 47.4767 25.7545 47.2423 25.0036 47.0837C24.2599 46.925 23.4375 46.8457 22.5294 46.8457H16.333L12.7825 63.0053H17.3377L18.9967 48.6268H22.5365C23.5377 48.6268 24.3386 48.7999 24.95 49.1532C25.5757 49.5137 25.9297 50.0185 26.0048 50.6711C26.087 51.3705 25.8224 51.9402 25.1967 52.3656C24.5531 52.8019 23.6699 53.0254 22.558 53.0254H20.8775L20.7559 55.7331H22.5723C23.7736 55.7331 24.8463 55.5997 25.7759 55.3257C26.6913 55.0589 27.4421 54.6839 28.0178 54.208C28.5827 53.7393 28.9689 53.1985 29.187 52.5892C29.4051 51.9799 29.423 51.3597 29.2728 50.6747C29.1226 49.9896 28.8509 49.4524 28.4468 48.9693L28.4504 48.9657Z" fill="white"/>
<path opacity="0.4" d="M28.3182 49.3837C27.9356 48.9223 27.4565 48.5401 26.8773 48.2264C26.3159 47.9199 25.6687 47.6928 24.9322 47.5342C24.2028 47.3791 23.3947 47.2998 22.5044 47.2998H16.4224L12.9363 63.1638H17.4093L19.0397 49.0484H22.5151C23.4984 49.0484 24.285 49.2179 24.8857 49.564C25.5007 49.9174 25.8475 50.4113 25.9226 51.0567C26.0013 51.7417 25.7438 52.3042 25.1288 52.7188C24.4995 53.1478 23.6307 53.3642 22.5401 53.3642H20.8882L20.7703 56.0214H22.5544C23.7344 56.0214 24.7856 55.888 25.7009 55.6212C26.6019 55.3616 27.3349 54.9902 27.9034 54.5215C28.4576 54.0636 28.8402 53.53 29.0512 52.9315C29.2621 52.333 29.2836 51.7237 29.137 51.0531C28.9904 50.3825 28.7222 49.8525 28.3253 49.3801L28.3182 49.3837Z" fill="white"/>
<path opacity="0.39" d="M28.1822 49.8024C27.8068 49.3517 27.3348 48.9731 26.7699 48.6667C26.2192 48.3674 25.5828 48.1403 24.8605 47.9889C24.1454 47.8338 23.3517 47.7617 22.4757 47.7617H16.5045L13.0828 63.3336H17.4699L19.0682 49.4779H22.4792C23.4446 49.4779 24.2134 49.6438 24.8069 49.9863C25.4076 50.3324 25.7509 50.8191 25.8224 51.4501C25.901 52.1243 25.6472 52.6723 25.0429 53.0833C24.4243 53.5016 23.5734 53.7179 22.5007 53.7179H20.881L20.763 56.3246H22.5114C23.6699 56.3246 24.7032 56.1948 25.5971 55.9317C26.4803 55.6757 27.2025 55.3151 27.7567 54.8536C28.3002 54.4029 28.6756 53.8802 28.883 53.2925C29.0904 52.7048 29.1118 52.1063 28.9653 51.4501C28.8187 50.7939 28.5576 50.2711 28.1679 49.806L28.1822 49.8024Z" fill="white"/>
<path opacity="0.38" d="M28.05 50.2204C27.6817 49.777 27.2169 49.4092 26.6627 49.1064C26.1228 48.8143 25.4971 48.5908 24.7891 48.4394C24.0883 48.2879 23.3088 48.2158 22.4507 48.2158H16.594L13.2366 63.4921H17.5415L19.1112 49.8996H22.4579C23.4054 49.8996 24.1598 50.0618 24.739 50.3971C25.329 50.736 25.6651 51.2155 25.7366 51.8321C25.8117 52.4919 25.565 53.0327 24.9714 53.4329C24.3636 53.8439 23.5305 54.0566 22.4793 54.0566H20.8882L20.7738 56.6165H22.49C23.6271 56.6165 24.6389 56.4903 25.5185 56.2307C26.3838 55.9783 27.0917 55.625 27.6388 55.1707C28.1715 54.7273 28.5398 54.2153 28.7436 53.6384C28.9474 53.0615 28.9689 52.4775 28.8259 51.8285C28.6828 51.1795 28.4254 50.6747 28.0428 50.2168L28.05 50.2204Z" fill="white"/>
<path opacity="0.37" d="M27.9142 50.6388C27.553 50.2061 27.0989 49.842 26.5555 49.5463C26.0263 49.2579 25.4149 49.0416 24.7176 48.8938C24.0276 48.7459 23.266 48.6738 22.4257 48.6738H16.6799L13.3904 63.658H17.6131L19.1541 50.3251H22.4365C23.3661 50.3251 24.1062 50.4838 24.6747 50.8119C25.254 51.1472 25.5829 51.6123 25.6544 52.2216C25.7295 52.8706 25.4864 53.4006 24.9036 53.7936C24.3065 54.1974 23.4912 54.4029 22.4579 54.4029H20.899L20.7881 56.9123H22.4722C23.5878 56.9123 24.5818 56.7861 25.4435 56.5337C26.2945 56.2885 26.9881 55.9388 27.5209 55.4953C28.0429 55.0627 28.404 54.5579 28.6042 53.9955C28.8045 53.433 28.8224 52.8561 28.6865 52.2216C28.5506 51.587 28.2932 51.0895 27.9213 50.6388H27.9142Z" fill="white"/>
<path opacity="0.36" d="M27.7818 51.0568C27.4279 50.6314 26.9809 50.2745 26.4482 49.986C25.9297 49.7048 25.329 49.4921 24.6461 49.3443C23.9703 49.2 23.2231 49.1279 22.3971 49.1279H16.7657L13.5405 63.8165H17.681L19.1899 50.7468H22.4078C23.3196 50.7468 24.0454 50.9054 24.6032 51.2263C25.1717 51.5544 25.4935 52.0123 25.5614 52.6072C25.6365 53.2417 25.3934 53.7609 24.8249 54.1467C24.2421 54.5433 23.4376 54.7452 22.4257 54.7452H20.899L20.7881 57.2041H22.44C23.5341 57.2041 24.5067 57.0815 25.3505 56.8328C26.1836 56.5912 26.8629 56.2487 27.3885 55.816C27.8998 55.3906 28.2538 54.9002 28.4505 54.345C28.6471 53.7898 28.665 53.2273 28.5291 52.6036C28.3933 51.9798 28.143 51.4931 27.7783 51.0532L27.7818 51.0568Z" fill="white"/>
<path opacity="0.36" d="M27.646 51.4752C27.2991 51.057 26.8629 50.7108 26.3409 50.426C25.8332 50.1484 25.2432 49.9393 24.5746 49.7987C23.9131 49.658 23.1801 49.5859 22.3721 49.5859H16.8514L13.6907 63.9825H17.7489L19.2292 51.1723H22.3828C23.2767 51.1723 23.9882 51.3274 24.5352 51.641C25.093 51.9619 25.4077 52.4126 25.4756 52.9931C25.5471 53.6168 25.3111 54.1252 24.7534 54.5038C24.1813 54.8931 23.3947 55.0914 22.4042 55.0914H20.9061L20.7988 57.5035H22.4185C23.4912 57.5035 24.4423 57.3845 25.2718 57.1393C26.087 56.9014 26.7556 56.5661 27.2705 56.1406C27.7747 55.7224 28.1179 55.2429 28.3146 54.6985C28.5112 54.154 28.5255 53.6024 28.3932 52.9931C28.2609 52.3838 28.0178 51.9042 27.6567 51.4752H27.646Z" fill="white"/>
<path opacity="0.35" d="M27.5136 51.8935C27.174 51.4861 26.7449 51.1436 26.2336 50.866C25.7366 50.5956 25.1574 50.3901 24.503 50.2495C23.8559 50.1088 23.1372 50.0439 22.3434 50.0439H16.9372L13.8408 64.1448H17.8168L19.2649 51.5979H22.3541C23.2302 51.5979 23.9274 51.7493 24.4601 52.0558C25.0036 52.3695 25.3147 52.8093 25.3826 53.3826C25.4541 53.9919 25.2217 54.4895 24.6782 54.8608C24.1169 55.2394 23.3481 55.4341 22.3756 55.4341H20.9096L20.8059 57.7956H22.3899C23.4375 57.7956 24.3743 57.6767 25.186 57.4423C25.9869 57.2116 26.6376 56.8835 27.1418 56.4652C27.6352 56.0578 27.9713 55.5855 28.1644 55.0519C28.3575 54.5183 28.3718 53.9775 28.2395 53.3826C28.1072 52.7877 27.8712 52.3154 27.5172 51.8935H27.5136Z" fill="white"/>
<path opacity="0.34" d="M27.3777 52.3114C27.0452 51.9112 26.6269 51.5759 26.1263 51.3055C25.64 51.0387 25.0751 50.8404 24.4315 50.7034C23.7986 50.5664 23.0943 50.5015 22.3184 50.5015H17.023L13.991 64.3103H17.8847L19.3042 52.023H22.3291C23.1836 52.023 23.8701 52.1708 24.3922 52.4736C24.9249 52.7801 25.2288 53.2128 25.2932 53.7716C25.3611 54.3701 25.1359 54.8568 24.6031 55.2174C24.0525 55.5887 23.3016 55.7798 22.3505 55.7798H20.9132L20.8095 58.0909H22.3613C23.3874 58.0909 24.3028 57.9755 25.1001 57.7448C25.8832 57.5177 26.5232 57.1968 27.0166 56.7894C27.4993 56.3891 27.8318 55.9277 28.0178 55.4049C28.2037 54.8821 28.2216 54.3557 28.0928 53.768C27.9641 53.1803 27.7317 52.7224 27.3849 52.3114H27.3777Z" fill="white"/>
</g>
<path d="M37.568 20.2158C36.6956 19.1666 35.6014 18.2941 34.2892 17.5802C33.0128 16.8843 31.5361 16.3615 29.8556 16.0046C28.1965 15.6477 26.3551 15.4746 24.3242 15.4746H10.4655L2.52783 51.612H12.7145L16.4259 19.455H24.3421C26.584 19.455 28.3717 19.8408 29.7412 20.6304C31.1392 21.4344 31.933 22.5629 32.101 24.0303C32.2798 25.5951 31.6934 26.8714 30.2918 27.8196C28.8544 28.7931 26.8807 29.2943 24.3922 29.2943H20.6307L20.359 35.3478H24.4208C27.1096 35.3478 29.5052 35.0449 31.5861 34.4392C33.6349 33.8443 35.3118 33.0043 36.599 31.9371C37.8612 30.8915 38.73 29.6801 39.2163 28.3172C39.7026 26.9543 39.7455 25.5662 39.4094 24.0375C39.0876 22.5701 38.4619 21.3046 37.5608 20.223L37.568 20.2158Z" fill="black"/>
</g>
<path d="M44.7513 34.2479V19.2241C44.7513 15.9395 43.0136 12.9073 40.1925 11.2633L27.292 3.75672C24.4709 2.11625 20.9955 2.11625 18.178 3.75672L5.27388 11.2669C2.45279 12.9073 0.715088 15.9431 0.715088 19.2277V34.2516C0.715088 37.5361 2.45279 40.5683 5.27388 42.2124L18.1744 49.7225C20.9955 51.363 24.4709 51.363 27.2884 49.7225L40.1889 42.2124C43.01 40.5719 44.7477 37.5361 44.7477 34.2516L44.7513 34.2479Z" stroke="url(#paint1_linear_22_1077)" stroke-width="1.65966" stroke-miterlimit="10"/>
</g>
<defs>
<linearGradient id="paint0_linear_22_1077" x1="11.6776" y1="44.0007" x2="38.0399" y2="3.52068" gradientUnits="userSpaceOnUse">
<stop stop-color="#3EDDB7"/>
<stop offset="1" stop-color="#CDF12E"/>
</linearGradient>
<linearGradient id="paint1_linear_22_1077" x1="-1.72463e-05" y1="26.7378" x2="45.4664" y2="26.7378" gradientUnits="userSpaceOnUse">
<stop stop-color="#3EDDB7"/>
<stop offset="1" stop-color="#CDF12E"/>
</linearGradient>
<clipPath id="clip0_22_1077">
<rect width="187" height="53" fill="white"/>
</clipPath>
</defs>
</svg>
