<svg width="166" height="190" viewBox="0 0 166 190" fill="none" xmlns="http://www.w3.org/2000/svg">
<path d="M172.805 123.734L172.805 65.6049C172.805 52.8966 166.026 41.1649 155.019 34.8038L104.689 5.76036C93.6823 -0.586786 80.1231 -0.586786 69.1307 5.76036L18.786 34.8177C7.77959 41.1649 1 52.9106 1 65.6188L0.999999 123.748C0.999999 136.456 7.77959 148.188 18.786 154.549L69.1167 183.606C80.1231 189.953 93.6823 189.953 104.675 183.606L155.005 154.549C166.012 148.201 172.791 136.456 172.791 123.748L172.805 123.734Z" fill="url(#paint0_linear_21_472)"/>
<mask id="mask0_21_472" style="mask-type:luminance" maskUnits="userSpaceOnUse" x="1" y="1" width="172" height="188">
<path d="M172.805 123.734L172.805 65.6049C172.805 52.8966 166.026 41.1649 155.019 34.8038L104.689 5.76036C93.6823 -0.586786 80.1231 -0.586786 69.1307 5.76036L18.786 34.8177C7.77959 41.1649 1 52.9106 1 65.6188L0.999999 123.748C0.999999 136.456 7.77959 148.188 18.786 154.549L69.1167 183.606C80.1231 189.953 93.6823 189.953 104.675 183.606L155.005 154.549C166.012 148.201 172.791 136.456 172.791 123.748L172.805 123.734Z" fill="white"/>
</mask>
<g mask="url(#mask0_21_472)">
<g opacity="0.91">
<path d="M144.78 70.6271C141.376 66.5678 137.108 63.1919 131.988 60.4299C127.008 57.7376 121.247 55.7148 114.69 54.3338C108.218 52.9528 101.034 52.2832 93.1101 52.2832L39.0408 52.2832L8.07226 192.102L47.8152 192.102L62.295 67.6837L93.1798 67.6837C101.926 67.6837 108.901 69.1764 114.244 72.2314C119.698 75.3422 122.795 79.7084 123.451 85.386C124.148 91.4402 121.861 96.3784 116.392 100.047C110.784 103.814 103.084 105.753 93.3751 105.753L78.7 105.753L77.6398 129.174L93.4867 129.174C103.977 129.174 113.323 128.003 121.442 125.659C129.435 123.357 135.978 120.107 141 115.978C145.924 111.932 149.314 107.245 151.211 101.972C153.038 96.8806 153.275 91.3286 151.964 85.4139C150.653 79.4992 148.267 74.84 144.752 70.655L144.78 70.6271Z" fill="white"/>
<path opacity="0.99" d="M144.25 72.2452C140.874 68.2277 136.633 64.8797 131.556 62.1316C126.617 59.4672 120.898 57.4585 114.397 56.0774C107.967 54.7104 100.852 54.0408 92.9846 54.0408L39.3756 54.0408L8.6582 192.743L48.0803 192.743L62.4485 69.3437L93.0822 69.3437C101.759 69.3437 108.678 70.8223 113.979 73.8634C119.391 76.9602 122.46 81.2847 123.116 86.9064C123.814 92.9048 121.526 97.8012 116.113 101.442C110.547 105.181 102.917 107.092 93.2775 107.092L78.7279 107.092L77.6817 130.318L93.4031 130.318C103.81 130.318 113.086 129.16 121.121 126.831C129.059 124.557 135.531 121.321 140.525 117.219C145.408 113.202 148.77 108.556 150.653 103.325C152.466 98.2755 152.704 92.7653 151.406 86.9064C150.109 81.0475 147.737 76.4162 144.25 72.2731L144.25 72.2452Z" fill="white"/>
<path opacity="0.98" d="M143.734 73.864C140.386 69.8744 136.188 66.5543 131.152 63.8341C126.255 61.1837 120.578 59.2028 114.133 57.8357C107.758 56.4826 100.699 55.813 92.9014 55.813L39.7109 55.813L9.24463 193.372L48.3458 193.372L62.6025 70.9764L92.9851 70.9764C101.592 70.9764 108.441 72.4411 113.714 75.4543C119.071 78.5232 122.126 82.8058 122.782 88.3857C123.479 94.3423 121.205 99.1968 115.835 102.81C110.325 106.52 102.75 108.418 93.1943 108.418L78.7563 108.418L77.7241 131.463L93.3199 131.463C103.643 131.463 112.836 130.319 120.815 128.003C128.683 125.743 135.113 122.535 140.066 118.475C144.906 114.5 148.24 109.882 150.109 104.693C151.979 99.5037 152.146 94.2307 150.849 88.3997C149.607 82.8197 147.208 77.9931 143.748 73.8779L143.734 73.864Z" fill="white"/>
<path opacity="0.97" d="M143.203 75.4818C139.883 71.5201 135.712 68.2279 130.718 65.5356C125.864 62.913 120.228 60.9322 113.839 59.593C107.52 58.2399 100.517 57.5842 92.7889 57.5842L40.0448 57.5842L9.82959 193.985L48.596 193.985L62.7271 72.6081L92.8586 72.6081C101.396 72.6081 108.189 74.0729 113.407 77.0581C118.722 80.0992 121.749 84.3538 122.39 89.8919C123.074 95.7927 120.828 100.605 115.499 104.19C110.031 107.873 102.512 109.756 93.04 109.756L78.7275 109.756L77.6952 132.606L93.1516 132.606C103.391 132.606 112.5 131.462 120.423 129.174C128.221 126.929 134.596 123.762 139.507 119.73C144.305 115.783 147.611 111.207 149.467 106.06C151.252 101.094 151.49 95.6811 150.206 89.9058C148.979 84.3678 146.607 79.597 143.175 75.5097L143.203 75.4818Z" fill="white"/>
<path opacity="0.97" d="M142.687 77.1135C139.395 73.1936 135.266 69.9294 130.314 67.251C125.487 64.6564 119.921 62.6894 113.574 61.3503C107.311 60.0111 100.364 59.3694 92.6913 59.3694L40.3796 59.3694L10.4155 194.64L48.8611 194.64L62.8806 74.2677L92.761 74.2677C101.215 74.2677 107.966 75.7185 113.142 78.6759C118.415 81.689 121.414 85.9158 122.056 91.3981C122.739 97.257 120.507 102.028 115.22 105.585C109.794 109.226 102.345 111.095 92.9563 111.095L78.7694 111.095L77.7511 133.75L93.0819 133.75C103.223 133.75 112.277 132.62 120.13 130.346C127.873 128.128 134.192 124.975 139.06 120.972C143.817 117.052 147.095 112.518 148.937 107.412C150.708 102.488 150.932 97.1175 149.676 91.3841C148.421 85.6508 146.105 81.1589 142.701 77.0995L142.687 77.1135Z" fill="white"/>
<path opacity="0.96" d="M142.158 78.7323C138.893 74.8403 134.792 71.6039 129.882 68.9535C125.097 66.3728 119.573 64.4337 113.282 63.1085C107.074 61.7833 100.183 61.1416 92.5802 61.1416L40.715 61.1416L11.002 195.269L49.1267 195.269L63.0206 75.9144L92.65 75.9144C101.034 75.9144 107.73 77.3512 112.863 80.2807C118.094 83.2659 121.066 87.4509 121.693 92.8913C122.363 98.6944 120.159 103.437 114.928 106.953C109.543 110.566 102.164 112.421 92.8453 112.421L78.7699 112.421L77.7655 134.894L92.9708 134.894C103.029 134.894 111.998 133.778 119.782 131.518C127.455 129.314 133.718 126.189 138.545 122.228C143.26 118.35 146.524 113.858 148.337 108.78C150.095 103.898 150.318 98.5688 149.063 92.8913C147.863 87.4509 145.52 82.7498 142.144 78.7323L142.158 78.7323Z" fill="white"/>
<path opacity="0.95" d="M141.641 80.3503C138.405 76.5002 134.346 73.2778 129.477 70.6552C124.734 68.1024 119.252 66.1774 113.016 64.8521C106.851 63.5409 100.029 62.8992 92.4823 62.8992L41.0635 62.8992L11.6016 195.896L49.4054 195.896L63.1878 77.5464L92.566 77.5464C100.88 77.5464 107.52 78.9693 112.598 81.8848C117.787 84.8561 120.731 88.9992 121.358 94.3978C122.028 100.145 119.838 104.846 114.649 108.348C109.32 111.933 101.996 113.774 92.7613 113.774L78.8116 113.774L77.8072 136.052L92.8869 136.052C102.861 136.052 111.761 134.936 119.475 132.704C127.078 130.514 133.299 127.417 138.084 123.483C142.771 119.633 145.994 115.183 147.793 110.161C149.537 105.32 149.76 100.033 148.519 94.4117C147.277 88.7899 145.003 84.3539 141.655 80.3782L141.641 80.3503Z" fill="white"/>
<path opacity="0.94" d="M141.111 81.9681C137.902 78.1459 133.871 74.9653 129.044 72.3567C124.343 69.8179 118.903 67.9068 112.737 66.6094C106.627 65.3121 99.8613 64.6704 92.3842 64.6704L41.3978 64.6704L12.187 196.524L49.67 196.524L63.3269 79.1921L92.454 79.1921C100.698 79.1921 107.283 80.601 112.318 83.4886C117.466 86.432 120.381 90.5472 121.009 95.89C121.679 101.595 119.503 106.255 114.355 109.714C109.068 113.271 101.8 115.085 92.6493 115.085L78.8111 115.085L77.8207 137.167L92.7609 137.167C102.651 137.167 111.468 136.065 119.126 133.847C126.673 131.685 132.825 128.616 137.581 124.71C142.227 120.888 145.421 116.48 147.207 111.5C148.937 106.701 149.16 101.47 147.918 95.876C146.733 90.5333 144.431 85.902 141.111 81.9542L141.111 81.9681Z" fill="white"/>
<path opacity="0.93" d="M140.595 83.5867C137.414 79.7923 133.425 76.6397 128.64 74.059C123.981 71.548 118.596 69.6509 112.472 68.3535C106.418 67.0562 99.7079 66.4285 92.2866 66.4285L41.7327 66.4285L12.7729 197.152L49.9351 197.152L63.4804 80.8246L92.3564 80.8246C100.531 80.8246 107.045 82.2196 112.053 85.0793C117.145 87.9948 120.047 92.0681 120.66 97.3691C121.316 103.019 119.168 107.636 114.062 111.068C108.817 114.597 101.619 116.397 92.5377 116.397L78.8251 116.397L77.8347 138.298L92.6493 138.298C102.456 138.298 111.203 137.21 118.777 135.006C126.254 132.857 132.364 129.816 137.065 125.952C141.669 122.172 144.835 117.792 146.607 112.853C148.323 108.096 148.546 102.907 147.318 97.3691C146.091 91.831 143.859 87.4787 140.581 83.5727L140.595 83.5867Z" fill="white"/>
<path opacity="0.92" d="M140.065 85.2047C136.912 81.4522 132.951 78.3135 128.208 75.7607C123.59 73.2637 118.248 71.3944 112.18 70.111C106.181 68.8277 99.5271 68.2139 92.1756 68.2139L42.068 68.2139L13.3594 197.793L50.1868 197.793L63.6064 82.4845L92.2314 82.4845C100.336 82.4845 106.795 83.8655 111.761 86.7113C116.811 89.5989 119.685 93.6443 120.298 98.9034C120.954 104.511 118.82 109.087 113.756 112.49C108.567 115.978 101.424 117.777 92.4267 117.777L78.8256 117.777L77.8492 139.483L92.5383 139.483C102.261 139.483 110.924 138.409 118.443 136.219C125.85 134.085 131.905 131.072 136.578 127.235C141.139 123.483 144.278 119.144 146.036 114.248C147.793 109.352 147.947 104.386 146.733 98.9034C145.52 93.4211 143.315 89.0967 140.051 85.2186L140.065 85.2047Z" fill="white"/>
<path opacity="0.91" d="M139.549 86.8225C136.424 83.0979 132.504 80.0011 127.803 77.4622C123.228 74.9931 117.927 73.1378 111.915 71.8544C105.958 70.585 99.3737 69.9712 92.0919 69.9712L42.4028 69.9712L13.9453 198.421L50.4519 198.421L63.7599 84.1163L92.1338 84.1163C100.169 84.1163 106.572 85.4833 111.482 88.3012C116.49 91.1609 119.336 95.1645 119.95 100.382C120.591 105.934 118.485 110.481 113.463 113.843C108.316 117.303 101.243 119.074 92.3151 119.074L78.8396 119.074L77.8771 140.585L92.4407 140.585C102.08 140.585 110.659 139.511 118.122 137.349C125.474 135.242 131.472 132.243 136.09 128.449C140.609 124.738 143.72 120.428 145.464 115.573C147.152 110.9 147.361 105.794 146.161 100.354C145.003 95.1366 142.771 90.6447 139.535 86.7946L139.549 86.8225Z" fill="white"/>
<path opacity="0.9" d="M139.019 88.4413C135.922 84.7446 132.03 81.6756 127.371 79.1647C122.837 76.7235 117.578 74.8682 111.622 73.6127C105.721 72.3572 99.1924 71.7434 91.9664 71.7434L42.7377 71.7434L14.5312 199.049L50.7169 199.049L63.9134 85.7629L92.0362 85.7629C100.001 85.7629 106.349 87.13 111.217 89.906C116.183 92.7378 119.001 96.7135 119.601 101.875C120.243 107.385 118.15 111.877 113.17 115.225C108.064 118.656 101.048 120.414 92.2175 120.414L78.8536 120.414L77.8911 141.743L92.3152 141.743C101.871 141.743 110.38 140.683 117.773 138.535C125.055 136.442 130.998 133.485 135.587 129.719C140.065 126.036 143.162 121.767 144.878 116.955C146.552 112.323 146.761 107.26 145.561 101.875C144.362 96.4903 142.2 92.2496 138.991 88.4413L139.019 88.4413Z" fill="white"/>
<path opacity="0.9" d="M138.502 90.0591C135.433 86.4043 131.583 83.3493 126.966 80.8662C122.474 78.4389 117.271 76.6115 111.356 75.3561C105.511 74.1145 99.0385 73.5007 91.8822 73.5007L43.0859 73.5007L15.1445 199.676L51.0094 199.676L64.0803 87.3947L91.952 87.3947C99.8475 87.3947 106.139 88.7478 110.965 91.5099C115.89 94.3277 118.68 98.2616 119.28 103.381C119.921 108.836 117.843 113.299 112.905 116.606C107.841 120.009 100.894 121.753 92.1333 121.753L78.895 121.753L77.9464 142.887L92.2449 142.887C101.717 142.887 110.142 141.841 117.466 139.706C124.678 137.628 130.579 134.698 135.127 130.96C139.563 127.305 142.631 123.078 144.333 118.321C146.035 113.564 146.203 108.724 145.017 103.381C143.887 98.2616 141.683 93.8395 138.502 90.0591Z" fill="white"/>
<path opacity="0.89" d="M137.972 91.6779C134.931 88.0509 131.109 85.0378 126.533 82.5687C122.083 80.1693 116.922 78.3558 111.063 77.1143C105.274 75.8728 98.8569 75.2729 91.7565 75.2729L43.4066 75.2729L15.7163 200.305L51.2603 200.305L64.2197 89.0414L91.8402 89.0414C99.666 89.0414 105.902 90.3806 110.672 93.1147C115.541 95.9047 118.317 99.7966 118.903 104.874C119.53 110.287 117.48 114.695 112.584 117.987C107.576 121.363 100.684 123.079 91.9937 123.079L78.8669 123.079L77.9183 144.017L92.0913 144.017C101.466 144.017 109.835 142.971 117.089 140.865C124.246 138.814 130.09 135.899 134.582 132.202C138.99 128.589 142.018 124.39 143.705 119.675C145.338 115.113 145.561 110.161 144.389 104.86C143.259 99.7827 141.083 95.4025 137.944 91.6639L137.972 91.6779Z" fill="white"/>
<path opacity="0.88" d="M137.456 93.2959C134.429 89.6969 130.663 86.7116 126.115 84.2565C121.707 81.8711 116.588 80.0715 110.785 78.8579C105.051 77.6303 98.6901 77.0444 91.6594 77.0444L43.7419 77.0444L16.3027 200.946L51.5259 200.946L64.3597 90.6873L91.7291 90.6873C99.4713 90.6873 105.665 92.0125 110.394 94.7188C115.221 97.4808 117.969 101.345 118.555 106.367C119.182 111.724 117.146 116.104 112.305 119.354C107.339 122.688 100.517 124.404 91.9105 124.404L78.9093 124.404L77.9747 145.161L92.0221 145.161C101.313 145.161 109.599 144.129 116.797 142.036C123.883 140 129.673 137.112 134.136 133.457C138.503 129.872 141.502 125.715 143.19 121.042C144.808 116.522 145.017 111.612 143.859 106.367C142.702 101.122 140.581 96.9926 137.47 93.282L137.456 93.2959Z" fill="white"/>
<path opacity="0.87" d="M136.926 94.9135C133.927 91.3563 130.189 88.385 125.697 85.9577C121.317 83.6002 116.267 81.8147 110.506 80.601C104.814 79.3874 98.5227 78.8015 91.5478 78.8015L44.0768 78.8015L16.8887 201.559L51.777 201.559L64.4992 92.3188L91.6176 92.3188C99.29 92.3188 105.414 93.6301 110.115 96.3224C114.9 99.0566 117.62 102.893 118.206 107.873C118.82 113.188 116.797 117.526 112.012 120.748C107.088 124.055 100.322 125.756 91.7989 125.756L78.9233 125.756L78.0026 146.318L91.9245 146.318C101.131 146.318 109.348 145.3 116.462 143.222C123.479 141.213 129.226 138.353 133.634 134.712C137.959 131.155 140.93 127.04 142.604 122.408C144.208 117.931 144.417 113.062 143.274 107.873C142.172 102.893 140.023 98.5823 136.94 94.9135L136.926 94.9135Z" fill="white"/>
<path opacity="0.86" d="M136.41 96.5323C133.439 93.003 129.728 90.0735 125.278 87.6602C120.94 85.3167 115.932 83.559 110.227 82.3593C104.591 81.1596 98.3554 80.5737 91.4502 80.5737L44.4116 80.5737L17.4746 202.202L52.0421 202.202L64.6388 93.9655L91.506 93.9655C99.1087 93.9655 105.177 95.2628 109.836 97.9272C114.579 100.633 117.271 104.428 117.843 109.366C118.457 114.625 116.448 118.922 111.705 122.116C106.823 125.394 100.127 127.068 91.6874 127.068L78.9233 127.068L78.0027 147.435L91.785 147.435C100.908 147.435 109.041 146.417 116.099 144.38C123.06 142.385 128.738 139.553 133.118 135.954C137.401 132.439 140.344 128.352 142.004 123.762C143.594 119.326 143.804 114.5 142.66 109.352C141.572 104.414 139.451 100.159 136.382 96.5183L136.41 96.5323Z" fill="white"/>
<path opacity="0.85" d="M135.88 98.1503C132.937 94.6629 129.268 91.7474 124.86 89.362C120.563 87.0463 115.597 85.3026 109.947 84.1029C104.368 82.9172 98.1878 82.3313 91.3524 82.3313L44.7601 82.3313L18.0742 202.829L52.3209 202.829L64.806 95.6115L91.4221 95.6115C98.955 95.6115 104.967 96.8949 109.571 99.5314C114.272 102.224 116.936 105.976 117.508 110.859C118.122 116.076 116.127 120.33 111.426 123.497C106.599 126.747 99.9594 128.407 91.5895 128.407L78.951 128.407L78.0443 148.593L91.7011 148.593C100.741 148.593 108.804 147.588 115.792 145.566C122.684 143.585 128.319 140.781 132.658 137.224C136.898 133.736 139.814 129.705 141.46 125.143C143.036 120.749 143.246 115.978 142.116 110.873C141.028 105.99 138.935 101.763 135.894 98.1503L135.88 98.1503Z" fill="white"/>
<path opacity="0.84" d="M135.364 99.7681C132.448 96.3086 128.807 93.421 124.441 91.0635C120.186 88.7757 115.262 87.032 109.668 85.8602C104.144 84.6745 98.0202 84.1025 91.2406 84.1025L45.0808 84.1025L18.646 203.457L52.5718 203.457L64.9313 97.2432L91.2964 97.2432C98.7595 97.2432 104.716 98.5127 109.278 101.135C113.937 103.8 116.573 107.524 117.145 112.365C117.745 117.526 115.778 121.739 111.119 124.878C106.334 128.1 99.7639 129.746 91.4777 129.746L78.9509 129.746L78.0581 149.736L91.5893 149.736C100.545 149.736 108.524 148.746 115.443 146.737C122.265 144.784 127.845 141.994 132.141 138.465C136.34 135.005 139.242 131.016 140.86 126.51C142.422 122.158 142.632 117.429 141.502 112.379C140.372 107.329 138.349 103.353 135.35 99.7821L135.364 99.7681Z" fill="white"/>
<path opacity="0.83" d="M134.834 101.387C131.946 97.9553 128.347 95.1095 124.023 92.7659C119.81 90.4921 114.941 88.7763 109.403 87.6045C103.921 86.4327 97.8667 85.8748 91.1569 85.8748L45.4435 85.8748L19.2598 204.099L52.8648 204.099L65.1127 98.9038L91.2266 98.9038C98.62 98.9038 104.521 100.173 109.04 102.754C113.644 105.39 116.266 109.073 116.824 113.872C117.424 118.992 115.471 123.162 110.854 126.259C106.111 129.44 99.5965 131.086 91.394 131.086L78.9927 131.086L78.0999 150.895L91.5056 150.895C100.378 150.895 108.273 149.904 115.137 147.923C121.902 145.984 127.426 143.222 131.681 139.735C135.838 136.317 138.712 132.355 140.316 127.891C141.92 123.428 142.06 118.894 140.958 113.886C139.856 108.878 137.833 104.944 134.862 101.401L134.834 101.387Z" fill="white"/>
<path opacity="0.83" d="M134.318 103.005C131.458 99.6149 127.887 96.7831 123.604 94.4674C119.433 92.2215 114.607 90.5196 109.125 89.3618C103.698 88.204 97.6857 87.646 91.0456 87.646L45.7647 87.646L19.832 204.726L53.1162 204.726L65.2525 100.536L91.1153 100.536C98.439 100.536 104.284 101.791 108.762 104.344C113.323 106.952 115.918 110.607 116.476 115.35C117.062 120.414 115.137 124.543 110.561 127.626C105.86 130.779 99.4155 132.397 91.2828 132.397L78.993 132.397L78.1142 152.01L91.3804 152.01C100.169 152.01 107.995 151.034 114.788 149.067C121.484 147.142 126.952 144.422 131.165 140.948C135.28 137.558 138.126 133.638 139.716 129.216C141.251 124.948 141.446 120.302 140.344 115.35C139.242 110.398 137.247 106.492 134.304 102.991L134.318 103.005Z" fill="white"/>
<path opacity="0.82" d="M133.787 104.623C130.955 101.261 127.426 98.4567 123.185 96.169C119.056 93.937 114.271 92.263 108.845 91.1052C103.474 89.9613 97.5176 89.4033 90.9473 89.4033L46.1127 89.4033L20.4312 205.354L53.3805 205.354L65.3913 102.181L91.003 102.181C98.2569 102.181 104.032 103.423 108.468 105.962C112.988 108.542 115.555 112.155 116.113 116.87C116.699 121.892 114.787 125.98 110.254 129.021C105.608 132.145 99.2195 133.75 91.1704 133.75L79.0062 133.75L78.1274 153.168L91.2681 153.168C99.9727 153.168 107.715 152.205 114.453 150.252C121.079 148.355 126.505 145.649 130.676 142.217C134.763 138.855 137.567 134.977 139.144 130.597C140.664 126.37 140.86 121.767 139.771 116.87C138.683 111.974 136.702 108.096 133.787 104.636L133.787 104.623Z" fill="white"/>
<path opacity="0.81" d="M133.271 106.241C130.467 102.907 126.966 100.145 122.767 97.8714C118.679 95.6674 113.937 93.9934 108.566 92.8635C103.251 91.7335 97.3502 91.1755 90.8496 91.1755L46.4475 91.1755L21.0171 205.982L53.6456 205.982L65.5448 103.814L90.9054 103.814C98.0896 103.814 103.809 105.042 108.203 107.553C112.681 110.105 115.22 113.69 115.764 118.35C116.336 123.316 114.453 127.375 109.961 130.388C105.357 133.485 99.0381 135.075 91.0589 135.075L79.0063 135.075L78.1414 154.312L91.1565 154.312C99.7635 154.312 107.45 153.35 114.104 151.425C120.674 149.541 126.031 146.863 130.174 143.473C134.219 140.153 136.995 136.303 138.558 131.965C140.12 127.626 140.26 123.232 139.186 118.364C138.111 113.495 136.158 109.687 133.257 106.241L133.271 106.241Z" fill="white"/>
<path opacity="0.8" d="M132.741 107.859C129.965 104.567 126.506 101.819 122.349 99.5729C118.303 97.3828 113.616 95.7367 108.287 94.6208C103.028 93.4908 97.1834 92.9468 90.7386 92.9468L46.7828 92.9468L21.6035 206.623L53.9112 206.623L65.6848 105.474L90.7944 105.474C97.9088 105.474 103.572 106.687 107.925 109.17C112.361 111.709 114.872 115.252 115.416 119.856C115.988 124.78 114.118 128.784 109.682 131.769C105.121 134.838 98.8713 136.4 90.9757 136.4L79.0487 136.4L78.1977 155.442L91.0873 155.442C99.6106 155.442 107.213 154.493 113.812 152.582C120.312 150.713 125.627 148.062 129.714 144.7C133.718 141.408 136.466 137.6 138.014 133.303C139.563 129.007 139.702 124.655 138.628 119.842C137.554 115.029 135.629 111.249 132.769 107.845L132.741 107.859Z" fill="white"/>
<path opacity="0.79" d="M132.225 109.477C129.477 106.213 126.045 103.493 121.93 101.275C117.927 99.1124 113.281 97.4803 108.008 96.3643C102.791 95.2484 97.016 94.7183 90.641 94.7183L47.1177 94.7183L22.1895 207.251L54.1763 207.251L65.8383 107.106L90.6968 107.106C97.7275 107.106 103.349 108.305 107.646 110.774C112.04 113.285 114.523 116.787 115.053 121.362C115.625 126.231 113.77 130.206 109.376 133.164C104.87 136.191 98.6621 137.753 90.8502 137.753L79.0487 137.753L78.1978 156.599L90.9479 156.599C99.3875 156.599 106.92 155.665 113.449 153.768C119.88 151.926 125.139 149.304 129.198 145.97C133.16 142.719 135.894 138.939 137.415 134.698C138.893 130.597 139.075 126.133 138.028 121.376C136.982 116.619 135.057 112.867 132.225 109.491L132.225 109.477Z" fill="white"/>
<path opacity="0.78" d="M131.695 111.096C128.975 107.86 125.585 105.181 121.498 102.977C117.523 100.829 112.933 99.2246 107.716 98.1226C102.554 97.0206 96.835 96.4905 90.5157 96.4905L47.4389 96.4905L22.7617 207.893L54.4277 207.893L65.9642 108.766L90.5715 108.766C97.5325 108.766 103.098 109.952 107.353 112.393C111.691 114.876 114.161 118.35 114.691 122.87C115.249 127.682 113.421 131.616 109.069 134.545C104.605 137.545 98.4671 139.093 90.725 139.093L79.0351 139.093L78.1981 157.758L90.8226 157.758C99.1786 157.758 106.628 156.823 113.086 154.954C119.462 153.127 124.665 150.532 128.668 147.24C132.588 144.017 135.295 140.279 136.801 136.08C138.308 131.881 138.447 127.598 137.401 122.883C136.355 118.168 134.458 114.458 131.654 111.124L131.695 111.096Z" fill="white"/>
<path opacity="0.77" d="M131.179 112.714C128.486 109.519 125.124 106.855 121.093 104.679C117.159 102.558 112.611 100.954 107.45 99.866C102.344 98.7779 96.6808 98.2478 90.4313 98.2478L47.7869 98.2478L23.3608 208.507L54.706 208.507L66.1308 110.384L90.4871 110.384C97.3783 110.384 102.888 111.57 107.101 113.969C111.398 116.424 113.839 119.87 114.369 124.334C114.927 129.105 113.114 132.997 108.803 135.898C104.381 138.87 98.3129 140.39 90.6545 140.39L79.0902 140.39L78.2532 158.86L90.7522 158.86C99.0244 158.86 106.39 157.939 112.793 156.084C119.098 154.27 124.246 151.703 128.221 148.439C132.099 145.245 134.778 141.548 136.27 137.391C137.763 133.234 137.902 128.993 136.87 124.334C135.88 119.856 133.955 115.992 131.179 112.7L131.179 112.714Z" fill="white"/>
<path opacity="0.76" d="M130.649 114.332C127.984 111.165 124.664 108.528 120.661 106.38C116.769 104.288 112.277 102.697 107.157 101.623C102.108 100.549 96.4998 100.019 90.3061 100.019L48.1081 100.019L23.9331 209.148L54.9574 209.148L66.2567 112.044L90.3619 112.044C97.1833 112.044 102.624 113.216 106.809 115.601C111.063 118.028 113.477 121.432 113.993 125.868C114.537 130.583 112.751 134.447 108.483 137.307C104.102 140.25 98.104 141.757 90.5154 141.757L79.0626 141.757L78.2396 160.031L90.613 160.031C98.8015 160.031 106.097 159.124 112.43 157.283C118.666 155.497 123.772 152.944 127.705 149.722C131.542 146.569 134.192 142.901 135.671 138.785C137.149 134.67 137.289 130.485 136.257 125.854C135.224 121.223 133.369 117.596 130.621 114.332L130.649 114.332Z" fill="white"/>
<path opacity="0.76" d="M130.133 115.95C127.496 112.826 124.204 110.217 120.256 108.083C116.406 106.004 111.956 104.442 106.892 103.368C101.884 102.307 96.3464 101.777 90.2224 101.777L48.4707 101.777L24.5469 209.763L55.2364 209.763L66.4241 113.676L90.2782 113.676C97.0299 113.676 102.415 114.834 106.544 117.192C110.756 119.605 113.142 122.967 113.658 127.347C114.202 132.02 112.43 135.829 108.204 138.674C103.879 141.59 97.9227 143.083 90.4316 143.083L79.1044 143.083L78.2953 161.175L90.5293 161.175C98.6341 161.175 105.846 160.269 112.124 158.455C118.303 156.684 123.353 154.173 127.231 150.978C131.039 147.853 133.648 144.24 135.113 140.153C136.577 136.066 136.717 131.937 135.699 127.361C134.68 122.786 132.839 119.201 130.133 115.964L130.133 115.95Z" fill="white"/>
<path opacity="0.75" d="M129.602 117.568C126.994 114.471 123.744 111.891 119.824 109.784C116.015 107.734 111.607 106.185 106.599 105.125C101.647 104.065 96.1648 103.563 90.1106 103.563L48.7914 103.563L25.1187 210.418L55.4873 210.418L66.5634 115.336L90.1664 115.336C96.8484 115.336 102.177 116.48 106.264 118.824C110.435 121.209 112.793 124.543 113.309 128.868C113.853 133.485 112.095 137.265 107.911 140.069C103.628 142.943 97.7411 144.422 90.3199 144.422L79.1043 144.422L78.2952 162.319L90.4036 162.319C98.4247 162.319 105.567 161.426 111.761 159.627C117.871 157.869 122.865 155.386 126.715 152.22C130.481 149.123 133.062 145.552 134.513 141.506C135.964 137.461 136.089 133.373 135.085 128.854C134.08 124.334 132.267 120.777 129.575 117.568L129.602 117.568Z" fill="white"/>
<path opacity="0.74" d="M129.087 119.187C126.506 116.118 123.284 113.565 119.42 111.487C115.653 109.45 111.287 107.915 106.335 106.869C101.439 105.823 96.0121 105.321 90.0137 105.321L49.1409 105.321L25.7192 211.032L55.767 211.032L66.7176 116.969L90.0695 116.969C96.6817 116.969 101.955 118.099 106 120.414C110.115 122.772 112.459 126.064 112.961 130.361C113.491 134.936 111.747 138.661 107.618 141.437C103.378 144.283 97.5605 145.747 90.223 145.747L79.1329 145.747L78.3378 163.449L90.3206 163.449C98.258 163.449 105.317 162.571 111.455 160.785C117.495 159.055 122.447 156.586 126.241 153.461C129.966 150.406 132.519 146.863 133.955 142.874C135.337 139.023 135.518 134.825 134.527 130.347C133.579 126.064 131.737 122.353 129.073 119.187L129.087 119.187Z" fill="white"/>
<path opacity="0.73" d="M128.556 120.805C126.003 117.778 122.823 115.253 118.986 113.174C115.262 111.165 110.951 109.645 106.055 108.613C101.214 107.58 95.8438 107.078 89.9151 107.078L49.4748 107.078L26.3042 211.66L56.0312 211.66L66.8701 118.601L89.9709 118.601C96.5134 118.601 101.731 119.717 105.72 122.004C109.794 124.334 112.109 127.598 112.611 131.839C113.142 136.359 111.412 140.055 107.338 142.803C103.14 145.621 97.3922 147.072 90.1244 147.072L79.1459 147.072L78.3647 164.593L90.222 164.593C98.0618 164.593 105.065 163.714 111.133 161.957C117.117 160.241 122 157.799 125.766 154.717C129.449 151.689 131.988 148.188 133.397 144.24C134.764 140.432 134.945 136.275 133.969 131.853C133.034 127.612 131.206 123.943 128.57 120.819L128.556 120.805Z" fill="white"/>
<path opacity="0.72" d="M128.04 122.423C125.515 119.424 122.362 116.927 118.582 114.876C114.899 112.881 110.631 111.388 105.79 110.37C101.005 109.352 95.6903 108.85 89.8175 108.85L49.8235 108.85L26.918 212.287L56.3241 212.287L67.0375 120.247L89.8872 120.247C96.3599 120.247 101.521 121.349 105.469 123.622C109.501 125.924 111.788 129.16 112.277 133.345C112.793 137.823 111.091 141.478 107.059 144.184C102.916 146.974 97.2109 148.397 90.0267 148.397L79.1738 148.397L78.3926 165.723L90.1104 165.723C97.8665 165.723 104.786 164.858 110.784 163.114C116.699 161.412 121.539 159.013 125.264 155.944C128.905 152.945 131.416 149.485 132.811 145.579C134.164 141.813 134.345 137.712 133.369 133.331C132.392 128.951 130.635 125.506 128.026 122.409L128.04 122.423Z" fill="white"/>
<path opacity="0.71" d="M127.511 124.041C125.014 121.07 121.903 118.601 118.15 116.578C114.509 114.611 110.283 113.133 105.498 112.114C100.755 111.11 95.5098 110.608 89.7067 110.608L50.1451 110.608L27.4907 212.915L56.576 212.915L67.1778 121.879L89.7764 121.879C96.1794 121.879 101.271 122.967 105.191 125.213C109.181 127.501 111.44 130.681 111.929 134.838C112.445 139.26 110.757 142.873 106.767 145.566C102.666 148.328 97.0303 149.737 89.9299 149.737L79.1886 149.737L78.4213 166.867L90.0136 166.867C97.686 166.867 104.535 166.016 110.464 164.286C116.309 162.612 121.094 160.227 124.776 157.2C128.375 154.243 130.859 150.811 132.24 146.947C133.621 143.083 133.746 139.163 132.798 134.824C131.877 130.667 130.091 127.082 127.525 124.027L127.511 124.041Z" fill="white"/>
<path opacity="0.7" d="M126.994 125.659C124.525 122.73 121.442 120.289 117.746 118.28C114.146 116.341 109.975 114.862 105.233 113.872C100.545 112.867 95.3561 112.393 89.6088 112.393L50.4937 112.393L28.0903 213.557L56.8408 213.557L67.3171 123.539L89.6646 123.539C95.9978 123.539 101.034 124.627 104.912 126.831C108.859 129.091 111.091 132.244 111.58 136.345C112.096 140.725 110.422 144.296 106.474 146.947C102.415 149.667 96.8487 151.076 89.8181 151.076L79.2023 151.076L78.435 168.025L89.9018 168.025C97.4904 168.025 104.256 167.188 110.129 165.472C115.918 163.812 120.647 161.454 124.288 158.469C127.845 155.54 130.3 152.15 131.681 148.328C133.062 144.505 133.174 140.627 132.225 136.345C131.277 132.062 129.547 128.7 127.008 125.659L126.994 125.659Z" fill="white"/>
<path opacity="0.7" d="M126.464 127.277C124.023 124.375 120.968 121.962 117.313 119.981C113.756 118.056 109.627 116.605 104.939 115.615C100.308 114.624 95.1746 114.15 89.4971 114.15L50.8143 114.15L28.6621 214.184L57.0917 214.184L67.4564 125.17L89.5529 125.17C95.8024 125.17 100.796 126.245 104.619 128.435C108.525 130.667 110.729 133.777 111.203 137.837C111.705 142.161 110.059 145.691 106.153 148.327C102.136 151.019 96.6393 152.4 89.6924 152.4L79.2021 152.4L78.4488 169.154L89.79 169.154C97.295 169.154 103.977 168.317 109.794 166.629C115.513 164.983 120.187 162.653 123.786 159.696C127.301 156.795 129.728 153.447 131.095 149.666C132.407 146.025 132.574 142.05 131.639 137.823C130.705 133.596 129.003 130.262 126.478 127.263L126.464 127.277Z" fill="white"/>
<path opacity="0.69" d="M125.948 128.896C123.534 126.022 120.521 123.637 116.894 121.684C113.365 119.786 109.292 118.35 104.66 117.373C100.085 116.397 95.007 115.922 89.3992 115.922L51.1629 115.922L29.2617 214.812L57.3705 214.812L67.6096 126.817L89.455 126.817C95.6347 126.817 100.573 127.877 104.353 130.04C108.203 132.244 110.408 135.326 110.868 139.344C111.37 143.627 109.738 147.114 105.874 149.709C101.912 152.373 96.4578 153.74 89.5945 153.74L79.2158 153.74L78.4765 170.299L89.6921 170.299C97.1134 170.299 103.726 169.476 109.459 167.816C115.109 166.197 119.74 163.882 123.297 160.966C126.785 158.106 129.17 154.786 130.523 151.062C131.876 147.337 131.988 143.529 131.053 139.344C130.119 135.159 128.445 131.867 125.948 128.91L125.948 128.896Z" fill="white"/>
<path opacity="0.68" d="M125.418 130.514C123.032 127.682 120.047 125.324 116.476 123.385C112.989 121.502 108.957 120.093 104.382 119.117C99.8479 118.154 94.8399 117.68 89.2879 117.68L51.484 117.68L29.834 215.44L57.6219 215.44L67.7495 128.449L89.3437 128.449C95.4537 128.449 100.336 129.495 104.075 131.63C107.883 133.806 110.059 136.861 110.519 140.823C111.008 145.049 109.403 148.509 105.581 151.076C101.661 153.712 96.2767 155.065 89.4832 155.065L79.2301 155.065L78.4908 171.442L89.5669 171.442C96.9045 171.442 103.433 170.633 109.111 168.987C114.704 167.383 119.266 165.109 122.795 162.208C126.241 159.376 128.612 156.098 129.938 152.415C131.263 148.732 131.388 144.98 130.468 140.837C129.547 136.693 127.887 133.443 125.418 130.514Z" fill="white"/>
<path opacity="0.67" d="M124.901 132.132C122.544 129.328 119.601 126.998 116.057 125.087C112.612 123.232 108.636 121.823 104.102 120.874C99.6245 119.925 94.6723 119.451 89.19 119.451L51.8325 119.451L30.4336 216.067L57.9007 216.067L67.9166 130.095L89.2598 130.095C95.3 130.095 100.127 131.127 103.823 133.247C107.59 135.396 109.738 138.409 110.184 142.329C110.673 146.514 109.082 149.917 105.302 152.456C101.424 155.065 96.1091 156.39 89.3993 156.39L79.2578 156.39L78.5324 172.572L89.483 172.572C96.7369 172.572 103.196 171.763 108.803 170.145C114.328 168.554 118.847 166.308 122.321 163.449C125.724 160.659 128.068 157.408 129.379 153.768C130.691 150.127 130.802 146.416 129.909 142.329C129.017 138.242 127.357 135.019 124.929 132.132L124.901 132.132Z" fill="white"/>
<path opacity="0.66" d="M124.372 133.75C122.042 130.988 119.127 128.673 115.639 126.789C112.235 124.948 108.302 123.567 103.824 122.618C99.4016 121.67 94.5052 121.223 89.0788 121.223L52.1537 121.223L31.0059 216.71L58.1521 216.71L68.0425 131.742L89.1346 131.742C95.1051 131.742 99.8619 132.76 103.517 134.852C107.241 136.987 109.362 139.958 109.808 143.836C110.282 147.965 108.72 151.341 104.981 153.852C101.159 156.419 95.9002 157.744 89.2601 157.744L79.2442 157.744L78.5188 173.744L89.3438 173.744C96.5 173.744 102.889 172.949 108.427 171.345C113.881 169.783 118.345 167.551 121.791 164.733C125.153 161.971 127.469 158.776 128.766 155.163C130.063 151.55 130.175 147.895 129.282 143.85C128.389 139.804 126.757 136.624 124.358 133.764L124.372 133.75Z" fill="white"/>
<path opacity="0.65" d="M123.855 135.368C121.553 132.634 118.679 130.36 115.22 128.491C111.858 126.677 107.966 125.31 103.544 124.376C99.1777 123.441 94.3371 122.995 88.9804 122.995L52.5017 122.995L31.605 217.337L58.4164 217.337L68.1952 133.387L89.0362 133.387C94.9369 133.387 99.638 134.392 103.251 136.456C106.934 138.563 109.026 141.506 109.473 145.328C109.947 149.415 108.398 152.736 104.716 155.219C100.935 157.757 95.7321 159.069 89.1896 159.069L79.2853 159.069L78.5739 174.874L89.2733 174.874C96.3459 174.874 102.665 174.093 108.133 172.502C113.532 170.954 117.94 168.75 121.33 165.96C124.65 163.226 126.938 160.073 128.221 156.502C129.504 152.931 129.616 149.318 128.737 145.328C127.858 141.339 126.24 138.2 123.869 135.368L123.855 135.368Z" fill="white"/>
<path opacity="0.64" d="M123.325 136.986C121.051 134.28 118.205 132.034 114.801 130.193C111.481 128.407 107.631 127.054 103.265 126.133C98.9406 125.213 94.1697 124.766 88.8828 124.766L52.8366 124.766L32.1909 217.978L58.6815 217.978L68.3348 135.033L88.9246 135.033C94.7556 135.033 99.4009 136.024 102.972 138.074C106.613 140.153 108.678 143.054 109.11 146.835C109.584 150.866 108.05 154.158 104.409 156.599C100.67 159.11 95.5368 160.394 89.0641 160.394L79.2853 160.394L78.5878 176.004L89.1478 176.004C96.1367 176.004 102.372 175.222 107.785 173.66C113.114 172.126 117.466 169.963 120.828 167.201C124.106 164.509 126.366 161.384 127.635 157.855C128.905 154.326 129.016 150.768 128.137 146.821C127.259 142.873 125.668 139.776 123.325 136.986Z" fill="white"/>
<path opacity="0.63" d="M122.809 138.605C120.563 135.94 117.759 133.708 114.383 131.895C111.105 130.123 107.311 128.784 102.987 127.877C98.7179 126.971 94.0029 126.524 88.7717 126.524L53.1719 126.524L32.7773 218.593L58.9471 218.593L68.4888 136.666L88.8275 136.666C94.5888 136.666 99.1783 137.656 102.694 139.665C106.279 141.715 108.329 144.589 108.762 148.328C109.222 152.317 107.716 155.568 104.116 157.981C100.42 160.464 95.356 161.733 88.9531 161.733L79.2859 161.733L78.5884 177.162L89.0228 177.162C95.928 177.162 102.08 176.395 107.423 174.846C112.682 173.34 116.992 171.191 120.312 168.471C123.548 165.807 125.78 162.724 127.036 159.25C128.291 155.777 128.403 152.248 127.538 148.342C126.673 144.436 125.111 141.381 122.781 138.619L122.809 138.605Z" fill="white"/>
<path opacity="0.63" d="M122.279 140.222C120.061 137.586 117.285 135.396 113.965 133.596C110.729 131.853 106.976 130.527 102.722 129.635C98.5089 128.742 93.8357 128.295 88.6883 128.295L53.5209 128.295L33.3774 219.234L59.2264 219.234L68.6425 138.311L88.7301 138.311C94.4216 138.311 98.9553 139.288 102.429 141.269C105.972 143.291 107.995 146.137 108.413 149.82C108.874 153.754 107.381 156.962 103.824 159.348C100.183 161.803 95.1749 163.058 88.8557 163.058L79.314 163.058L78.6305 178.291L88.9394 178.291C95.7608 178.291 101.843 177.538 107.116 176.004C112.319 174.511 116.56 172.391 119.838 169.698C123.033 167.062 125.237 164.021 126.478 160.589C127.72 157.157 127.817 153.67 126.966 149.82C126.116 145.97 124.567 142.943 122.279 140.222Z" fill="white"/>
<path opacity="0.62" d="M121.763 141.841C119.573 139.232 116.838 137.07 113.546 135.298C110.352 133.568 106.641 132.271 102.442 131.378C98.2853 130.485 93.6679 130.053 88.5762 130.053L53.8553 130.053L33.9629 219.848L59.491 219.848L68.7955 139.943L88.632 139.943C94.2538 139.943 98.7317 140.906 102.163 142.873C105.665 144.882 107.66 147.672 108.078 151.312C108.524 155.204 107.046 158.371 103.544 160.729C99.9453 163.156 94.9931 164.383 88.7576 164.383L79.3415 164.383L78.658 179.421L88.8413 179.421C95.579 179.421 101.577 178.668 106.795 177.161C111.928 175.683 116.127 173.59 119.363 170.94C122.53 168.345 124.706 165.332 125.92 161.942C127.133 158.552 127.245 155.107 126.408 151.312C125.571 147.518 124.037 144.519 121.777 141.827L121.763 141.841Z" fill="white"/>
<path opacity="0.61" d="M121.233 143.459C119.07 140.893 116.364 138.744 113.128 137.001C109.975 135.299 106.306 134.015 102.163 133.136C98.0621 132.258 93.5006 131.839 88.4786 131.839L54.1901 131.839L34.5488 220.504L59.7561 220.504L68.949 141.604L88.5344 141.604C94.0725 141.604 98.5085 142.553 101.898 144.492C105.358 146.472 107.325 149.234 107.743 152.834C108.19 156.67 106.725 159.794 103.265 162.124C99.7082 164.509 94.8258 165.737 88.6739 165.737L79.3694 165.737L78.6999 180.594L88.7437 180.594C95.3977 180.594 101.326 179.854 106.474 178.362C111.538 176.911 115.695 174.846 118.875 172.224C122 169.657 124.148 166.686 125.348 163.338C126.548 159.99 126.659 156.586 125.822 152.834C124.985 149.081 123.479 146.124 121.247 143.473L121.233 143.459Z" fill="white"/>
<path opacity="0.6" d="M120.717 145.077C118.582 142.538 115.918 140.432 112.709 138.702C109.585 137.014 105.986 135.745 101.884 134.88C97.825 134.015 93.3332 133.596 88.3671 133.596L54.5249 133.596L35.1348 221.117L60.0072 221.117L69.0746 143.236L88.4089 143.236C93.8773 143.236 98.2435 144.17 101.591 146.081C105.009 148.034 106.948 150.769 107.353 154.312C107.799 158.092 106.348 161.189 102.931 163.491C99.4153 165.848 94.6026 167.062 88.5205 167.062L79.3416 167.062L78.6859 181.723L88.6042 181.723C95.1746 181.723 101.02 180.998 106.097 179.519C111.105 178.082 115.192 176.046 118.345 173.451C121.428 170.912 123.548 167.983 124.734 164.677C125.92 161.37 126.031 158.022 125.208 154.312C124.385 150.601 122.893 147.7 120.689 145.077L120.717 145.077Z" fill="white"/>
<path opacity="0.59" d="M120.186 146.695C118.08 144.184 115.443 142.105 112.277 140.404C109.194 138.744 105.637 137.488 101.591 136.637C97.5877 135.786 93.1517 135.368 88.2553 135.368L54.8456 135.368L35.7065 221.759L60.2581 221.759L69.2139 144.881L88.2972 144.881C93.6957 144.881 98.0062 145.802 101.312 147.699C104.674 149.624 106.599 152.317 107.004 155.818C107.436 159.557 106.013 162.612 102.638 164.871C99.178 167.201 94.4211 168.387 88.4227 168.387L79.3554 168.387L78.6997 182.853L88.4925 182.853C94.9791 182.853 100.754 182.127 105.762 180.677C110.701 179.254 114.746 177.245 117.857 174.692C120.898 172.195 122.99 169.294 124.162 166.029C125.334 162.765 125.445 159.459 124.636 155.804C123.827 152.149 122.349 149.276 120.186 146.681L120.186 146.695Z" fill="white"/>
<path opacity="0.58" d="M119.671 148.314C117.592 145.845 114.998 143.78 111.873 142.092C108.832 140.46 105.316 139.218 101.327 138.368C97.3789 137.531 92.9987 137.112 88.1721 137.112L55.2088 137.112L36.3208 222.359L60.5515 222.359L69.3818 146.5L88.2139 146.5C93.5428 146.5 97.7974 147.407 101.062 149.276C104.382 151.173 106.279 153.838 106.683 157.297C107.116 160.98 105.707 163.993 102.373 166.239C98.9553 168.541 94.2542 169.713 88.3395 169.713L79.3977 169.713L78.756 183.997L88.4232 183.997C94.8122 183.997 100.518 183.286 105.47 181.849C110.338 180.454 114.328 178.459 117.397 175.948C120.396 173.479 122.461 170.619 123.618 167.411C124.776 164.203 124.874 160.924 124.079 157.311C123.284 153.698 121.833 150.867 119.685 148.314L119.671 148.314Z" fill="white"/>
<path opacity="0.57" d="M119.14 149.932C117.089 147.49 114.522 145.468 111.439 143.794C108.44 142.175 104.967 140.962 101.033 140.125C97.1409 139.288 92.8165 138.883 88.0457 138.883L55.5148 138.883L36.8779 223L60.7878 223L69.5064 148.146L88.0875 148.146C93.3466 148.146 97.5455 149.039 100.754 150.88C104.032 152.749 105.901 155.372 106.292 158.79C106.71 162.431 105.329 165.402 102.051 167.606C98.6754 169.88 94.0441 171.038 88.1991 171.038L79.3689 171.038L78.7412 185.127L88.2689 185.127C94.5742 185.127 100.21 184.429 105.078 183.006C109.891 181.625 113.825 179.672 116.852 177.175C119.809 174.748 121.846 171.916 122.99 168.75C124.134 165.583 124.231 162.347 123.45 158.79C122.669 155.232 121.232 152.429 119.112 149.904L119.14 149.932Z" fill="white"/>
<path opacity="0.56" d="M118.624 151.55C116.601 149.151 114.076 147.142 111.035 145.496C108.078 143.906 104.66 142.692 100.768 141.883C96.9182 141.06 92.6635 140.669 87.9624 140.669L55.878 140.669L37.4922 223.643L61.0812 223.643L69.6743 149.807L88.0043 149.807C93.1936 149.807 97.3367 150.699 100.503 152.513C103.74 154.368 105.581 156.949 105.972 160.311C106.39 163.896 105.023 166.825 101.787 169.015C98.4527 171.247 93.8911 172.405 88.1299 172.405L79.4252 172.405L78.7975 186.299L88.1996 186.299C94.4212 186.299 99.9732 185.602 104.786 184.207C109.529 182.84 113.407 180.915 116.392 178.459C119.308 176.06 121.33 173.284 122.446 170.145C123.562 167.007 123.674 163.826 122.893 160.311C122.111 156.795 120.703 154.033 118.61 151.55L118.624 151.55Z" fill="white"/>
<path opacity="0.56" d="M118.094 153.168C116.099 150.797 113.602 148.816 110.603 147.198C107.688 145.621 104.312 144.436 100.476 143.626C96.6812 142.817 92.4823 142.427 87.837 142.427L56.185 142.427L38.0503 224.27L61.3185 224.27L69.8 151.438L87.8789 151.438C92.9984 151.438 97.0857 152.317 100.21 154.103C103.405 155.93 105.218 158.483 105.595 161.803C106.014 165.346 104.66 168.234 101.466 170.382C98.1877 172.586 93.682 173.716 87.9905 173.716L79.3974 173.716L78.7836 187.429L88.0602 187.429C94.1981 187.429 99.6664 186.745 104.423 185.364C109.11 184.025 112.933 182.114 115.876 179.701C118.764 177.329 120.745 174.595 121.847 171.498C122.949 168.401 123.06 165.276 122.293 161.803C121.526 158.329 120.131 155.609 118.066 153.168L118.094 153.168Z" fill="white"/>
<path opacity="0.55" d="M117.578 154.786C115.611 152.443 113.142 150.504 110.199 148.899C107.325 147.351 103.991 146.179 100.211 145.384C96.4721 144.589 92.329 144.198 87.7535 144.198L56.5479 144.198L38.6782 224.898L61.6116 224.898L69.9676 153.084L87.7954 153.084C92.8452 153.084 96.8627 153.949 99.9596 155.707C103.112 157.506 104.898 160.017 105.274 163.295C105.679 166.783 104.354 169.643 101.201 171.763C97.9647 173.939 93.5148 175.055 87.9209 175.055L79.4534 175.055L78.8396 188.572L87.9907 188.572C94.0449 188.572 99.4434 187.903 104.131 186.536C108.748 185.211 112.514 183.327 115.416 180.942C118.262 178.612 120.215 175.906 121.303 172.851C122.391 169.796 122.502 166.713 121.735 163.295C120.968 159.878 119.601 157.185 117.578 154.772L117.578 154.786Z" fill="white"/>
<path opacity="0.54" d="M117.048 156.405C115.109 154.103 112.682 152.178 109.766 150.602C106.935 149.067 103.656 147.923 99.9178 147.128C96.2351 146.347 92.1478 145.956 87.6281 145.956L56.8549 145.956L39.2363 225.526L61.8489 225.526L70.0932 154.717L87.6699 154.717C92.65 154.717 96.6117 155.568 99.6528 157.311C102.75 159.083 104.521 161.566 104.898 164.788C105.302 168.234 103.991 171.038 100.88 173.13C97.6859 175.279 93.3056 176.381 87.7815 176.381L79.4396 176.381L78.8397 189.703L87.8652 189.703C93.8357 189.703 99.1506 189.033 103.768 187.694C108.316 186.383 112.04 184.527 114.9 182.184C117.704 179.882 119.629 177.218 120.703 174.205C121.777 171.191 121.875 168.15 121.135 164.775C120.396 161.399 119.029 158.762 117.034 156.377L117.048 156.405Z" fill="white"/>
<path opacity="0.53" d="M116.532 158.023C114.62 155.749 112.221 153.852 109.361 152.303C106.571 150.797 103.335 149.653 99.6523 148.886C96.0253 148.104 91.9939 147.728 87.5439 147.728L57.2171 147.728L39.8496 226.153L62.1413 226.153L70.2741 156.363L87.5997 156.363C92.51 156.363 96.4159 157.2 99.4151 158.915C102.47 160.659 104.214 163.114 104.577 166.295C104.967 169.685 103.684 172.461 100.615 174.511C97.4761 176.632 93.1517 177.706 87.6973 177.706L79.467 177.706L78.8811 190.847L87.7671 190.847C93.6539 190.847 98.899 190.191 103.447 188.866C107.938 187.582 111.593 185.755 114.425 183.425C117.187 181.151 119.084 178.529 120.158 175.572C121.233 172.614 121.316 169.601 120.577 166.281C119.838 162.961 118.498 160.352 116.532 157.995L116.532 158.023Z" fill="white"/>
<path opacity="0.52" d="M116.002 159.641C114.119 157.395 111.761 155.539 108.929 154.005C106.181 152.512 102.987 151.396 99.3597 150.629C95.7746 149.862 91.8128 149.499 87.4326 149.499L57.5382 149.499L40.4219 226.795L62.3928 226.795L70.3999 158.008L87.4745 158.008C92.315 158.008 96.1651 158.831 99.1225 160.519C102.136 162.249 103.851 164.648 104.214 167.787C104.605 171.135 103.335 173.855 100.308 175.892C97.2114 177.971 92.9567 179.045 87.586 179.045L79.4812 179.045L78.8953 191.99L87.6558 191.99C93.4589 191.99 98.6203 191.348 103.112 190.051C107.534 188.782 111.147 186.982 113.923 184.694C116.643 182.462 118.513 179.868 119.573 176.952C120.633 174.037 120.717 171.065 119.991 167.801C119.266 164.537 117.955 161.956 116.002 159.641Z" fill="white"/>
<path opacity="0.51" d="M115.486 161.259C113.63 159.055 111.301 157.214 108.525 155.707C105.804 154.243 102.666 153.141 99.1085 152.387C95.5792 151.634 91.6733 151.271 87.3489 151.271L57.9009 151.271L41.0356 227.423L62.6857 227.423L70.5813 159.655L87.4047 159.655C92.1615 159.655 95.9698 160.464 98.8853 162.138C101.857 163.84 103.545 166.211 103.907 169.294C104.298 172.586 103.042 175.279 100.057 177.274C97.0021 179.324 92.8032 180.384 87.5163 180.384L79.5231 180.384L78.9511 193.135L87.586 193.135C93.3054 193.135 98.3971 192.493 102.805 191.223C107.158 189.968 110.715 188.196 113.463 185.95C116.141 183.746 117.997 181.193 119.029 178.32C120.061 175.446 120.159 172.531 119.447 169.294C118.736 166.058 117.439 163.533 115.513 161.259L115.486 161.259Z" fill="white"/>
<path opacity="0.5" d="M114.969 162.877C113.142 160.701 110.854 158.887 108.106 157.409C105.428 155.972 102.345 154.884 98.8296 154.131C95.3561 153.391 91.506 153.029 87.2513 153.029L58.2358 153.029L41.6216 228.05L62.9508 228.05L70.7208 161.287L87.2931 161.287C91.9802 161.287 95.7327 162.096 98.5924 163.728C101.522 165.402 103.182 167.746 103.531 170.787C103.907 174.037 102.68 176.687 99.7363 178.654C96.7232 180.677 92.594 181.709 87.3908 181.709L79.5231 181.709L78.9512 194.278L87.4605 194.278C93.0823 194.278 98.1042 193.65 102.457 192.395C106.753 191.167 110.254 189.41 112.947 187.192C115.583 185.015 117.411 182.504 118.429 179.673C119.447 176.841 119.545 173.967 118.834 170.787C118.122 167.606 116.853 165.109 114.969 162.863L114.969 162.877Z" fill="white"/>
<path opacity="0.49" d="M114.439 164.495C112.639 162.347 110.379 160.575 107.673 159.11C105.037 157.687 101.996 156.613 98.536 155.888C95.1183 155.162 91.324 154.8 87.1251 154.8L58.5559 154.8L42.1929 228.678L63.1873 228.678L70.8457 162.933L87.1669 162.933C91.7843 162.933 95.467 163.728 98.2988 165.346C101.186 166.992 102.819 169.294 103.167 172.293C103.544 175.487 102.33 178.096 99.4427 180.035C96.4854 182.03 92.412 183.048 87.2785 183.048L79.5225 183.048L78.9645 195.422L87.3343 195.422C92.8724 195.422 97.8106 194.808 102.107 193.566C106.334 192.353 109.78 190.637 112.444 188.447C115.039 186.312 116.838 183.829 117.842 181.039C118.847 178.249 118.931 175.418 118.247 172.293C117.563 169.168 116.294 166.699 114.439 164.495Z" fill="white"/>
<path opacity="0.49" d="M113.923 166.114C112.151 164.007 109.933 162.25 107.269 160.813C104.674 159.418 101.675 158.358 98.2712 157.646C94.8954 156.921 91.1708 156.572 87.0416 156.572L58.905 156.572L42.793 229.32L63.4665 229.32L70.9994 164.579L87.0695 164.579C91.6172 164.579 95.2441 165.36 98.0341 166.951C100.866 168.569 102.484 170.843 102.833 173.786C103.195 176.939 101.996 179.505 99.164 181.417C96.2485 183.383 92.2449 184.388 87.1951 184.388L79.5646 184.388L79.0205 196.58L87.2648 196.58C92.7192 196.58 97.5877 195.98 101.814 194.753C105.971 193.553 109.375 191.865 111.998 189.717C114.565 187.61 116.322 185.169 117.313 182.421C118.303 179.673 118.387 176.883 117.703 173.8C117.02 170.717 115.778 168.304 113.951 166.114L113.923 166.114Z" fill="white"/>
<path opacity="0.48" d="M113.393 167.732C111.649 165.653 109.459 163.923 106.836 162.514C104.284 161.133 101.326 160.101 97.9783 159.39C94.6583 158.678 90.9895 158.344 86.9301 158.344L59.2398 158.344L43.3789 229.948L63.7316 229.948L71.1529 166.225L86.9719 166.225C91.4498 166.225 95.021 166.992 97.7551 168.555C100.545 170.145 102.135 172.391 102.47 175.292C102.833 178.389 101.647 180.914 98.8571 182.797C95.9835 184.723 92.0357 185.713 87.0696 185.713L79.5507 185.713L79.0066 197.71L87.1254 197.71C92.496 197.71 97.2808 197.11 101.438 195.91C105.539 194.738 108.873 193.064 111.454 190.944C113.979 188.866 115.708 186.466 116.685 183.774C117.661 181.082 117.745 178.32 117.076 175.292C116.406 172.265 115.178 169.88 113.379 167.732L113.393 167.732Z" fill="white"/>
<path opacity="0.47" d="M112.877 169.349C111.161 167.313 109.013 165.611 106.432 164.216C103.921 162.863 101.02 161.845 97.7138 161.147C94.4496 160.45 90.8366 160.115 86.833 160.115L59.5751 160.115L43.9653 230.589L63.9972 230.589L71.2929 167.885L86.8609 167.885C91.269 167.885 94.7843 168.638 97.4767 170.186C100.225 171.763 101.787 173.953 102.122 176.813C102.471 179.868 101.313 182.351 98.5647 184.206C95.7329 186.103 91.8549 187.08 86.9585 187.08L79.5651 187.08L79.0351 198.881L87.0283 198.881C92.3152 198.881 97.0303 198.295 101.118 197.11C105.149 195.952 108.441 194.306 110.98 192.227C113.463 190.19 115.165 187.833 116.127 185.169C117.09 182.504 117.174 179.812 116.504 176.827C115.835 173.841 114.649 171.498 112.863 169.391L112.877 169.349Z" fill="white"/>
<path opacity="0.46" d="M112.347 170.968C110.659 168.959 108.539 167.285 106 165.918C103.531 164.579 100.671 163.575 97.4209 162.891C94.2125 162.208 90.6553 161.873 86.7214 161.873L59.91 161.873L44.5513 231.203L64.2623 231.203L71.4464 169.503L86.7633 169.503C91.1017 169.503 94.5612 170.243 97.2117 171.763C99.9179 173.312 101.452 175.474 101.773 178.278C102.122 181.277 100.978 183.732 98.2718 185.546C95.4958 187.415 91.6736 188.377 86.8609 188.377L79.5791 188.377L79.063 199.998L86.9167 199.998C92.12 199.998 96.7513 199.426 100.783 198.254C104.745 197.11 107.995 195.506 110.478 193.455C112.919 191.446 114.593 189.131 115.542 186.508C116.49 183.886 116.574 181.235 115.918 178.292C115.263 175.348 114.091 173.047 112.347 170.968Z" fill="white"/>
<path opacity="0.45" d="M111.831 172.586C110.171 170.605 108.092 168.959 105.595 167.62C103.168 166.309 100.35 165.318 97.1554 164.649C94.0028 163.979 90.5014 163.644 86.6233 163.644L60.2443 163.644L45.1367 231.845L64.5269 231.845L71.5994 171.163L86.6652 171.163C90.9338 171.163 94.3376 171.889 96.9462 173.381C99.6106 174.902 101.117 177.022 101.438 179.798C101.787 182.755 100.657 185.155 97.9924 186.954C95.2582 188.796 91.5058 189.73 86.7628 189.73L79.6066 189.73L79.0905 201.155L86.8186 201.155C91.9382 201.155 96.4998 200.583 100.448 199.439C104.353 198.323 107.534 196.733 109.989 194.71C112.389 192.744 114.049 190.456 114.969 187.875C115.89 185.294 115.974 182.686 115.332 179.798C114.69 176.911 113.532 174.637 111.817 172.6L111.831 172.586Z" fill="white"/>
<path opacity="0.44" d="M111.301 174.204C109.668 172.265 107.618 170.647 105.163 169.321C102.777 168.038 100.001 167.062 96.8625 166.392C93.7517 165.722 90.3201 165.402 86.5118 165.402L60.5792 165.402L45.7227 232.458L64.778 232.458L71.725 172.781L86.5397 172.781C90.7386 172.781 94.0725 173.492 96.6393 174.971C99.2479 176.464 100.741 178.556 101.061 181.276C101.396 184.178 100.294 186.549 97.6716 188.307C94.9793 190.121 91.2826 191.041 86.6373 191.041L79.6066 191.041L79.1045 202.271L86.7071 202.271C91.7429 202.271 96.2208 201.713 100.113 200.583C103.949 199.481 107.088 197.919 109.501 195.938C111.859 193.999 113.491 191.753 114.397 189.214C115.304 186.675 115.388 184.108 114.76 181.276C114.132 178.445 112.988 176.199 111.301 174.204Z" fill="white"/>
<path opacity="0.43" d="M110.784 175.823C109.18 173.912 107.171 172.321 104.758 171.01C102.415 169.741 99.6944 168.792 96.5975 168.136C93.5425 167.481 90.1667 167.174 86.4142 167.174L60.914 167.174L46.3086 233.1L65.0431 233.1L71.8785 174.442L86.4421 174.442C90.5712 174.442 93.8494 175.153 96.3743 176.59C98.9411 178.055 100.406 180.119 100.713 182.784C101.047 185.629 99.9594 187.959 97.3787 189.689C94.7422 191.46 91.1013 192.381 86.5258 192.381L79.6067 192.381L79.1045 203.429L86.5816 203.429C91.5337 203.429 95.9419 202.885 99.7641 201.769C103.531 200.681 106.613 199.147 108.985 197.208C111.301 195.297 112.905 193.093 113.798 190.595C114.69 188.098 114.774 185.574 114.16 182.784C113.546 179.994 112.417 177.804 110.757 175.823L110.784 175.823Z" fill="white"/>
<path opacity="0.42" d="M110.254 177.441C108.678 175.557 106.697 173.995 104.326 172.712C102.024 171.47 99.3457 170.521 96.3046 169.88C93.3054 169.238 89.9714 168.931 86.3026 168.931L61.2488 168.931L46.8945 233.714L65.3082 233.714L72.0181 176.059L86.3305 176.059C90.376 176.059 93.6123 176.757 96.0954 178.166C98.6203 179.617 100.057 181.625 100.364 184.262C100.685 187.066 99.6247 189.354 97.0998 191.055C94.5051 192.799 90.934 193.692 86.4282 193.692L79.6346 193.692L79.1464 204.545L86.484 204.545C91.3385 204.545 95.6769 204.001 99.4433 202.913C103.154 201.853 106.181 200.346 108.511 198.421C110.784 196.552 112.361 194.376 113.24 191.934C114.118 189.493 114.202 187.01 113.588 184.262C112.975 181.514 111.873 179.366 110.24 177.427L110.254 177.441Z" fill="white"/>
<path opacity="0.42" d="M109.738 179.059C108.19 177.217 106.251 175.669 103.921 174.413C101.648 173.186 99.0251 172.265 96.0398 171.637C93.0964 171.01 89.8182 170.703 86.2192 170.703L61.5978 170.703L47.4946 234.355L65.5875 234.355L72.1857 177.719L86.2471 177.719C90.2228 177.719 93.4033 178.403 95.8306 179.798C98.3136 181.221 99.7226 183.202 100.029 185.782C100.35 188.53 99.3041 190.79 96.821 192.45C94.2682 194.166 90.7668 195.045 86.3447 195.045L79.6628 195.045L79.1885 205.703L86.4005 205.703C91.1714 205.703 95.426 205.173 99.1227 204.098C102.764 203.052 105.735 201.573 108.023 199.69C110.269 197.849 111.803 195.715 112.668 193.315C113.533 190.916 113.603 188.475 113.017 185.782C112.431 183.09 111.329 180.97 109.738 179.059Z" fill="white"/>
<path opacity="0.41" d="M109.207 180.677C107.687 178.864 105.776 177.357 103.488 176.116C101.256 174.916 98.6894 174.009 95.7599 173.396C92.8584 172.782 89.6499 172.475 86.1067 172.475L61.9317 172.475L48.0796 234.998L65.8516 234.998L72.3243 179.366L86.1346 179.366C90.0405 179.366 93.1652 180.036 95.5507 181.403C97.9919 182.798 99.3729 184.751 99.6658 187.276C99.9867 189.982 98.9544 192.186 96.5132 193.832C94.0022 195.52 90.5566 196.385 86.2183 196.385L79.6619 196.385L79.1876 206.861L86.2741 206.861C90.9612 206.861 95.1461 206.345 98.773 205.285C102.344 204.252 105.274 202.802 107.52 200.96C109.724 199.147 111.23 197.054 112.081 194.697C112.932 192.339 113.002 189.94 112.416 187.29C111.83 184.639 110.77 182.561 109.194 180.691L109.207 180.677Z" fill="white"/>
<path opacity="0.4" d="M108.692 182.295C107.199 180.509 105.33 179.031 103.07 177.817C100.88 176.631 98.3548 175.752 95.4812 175.139C92.6354 174.539 89.4828 174.232 86.0093 174.232L62.2807 174.232L48.6797 235.611L66.1308 235.611L72.4919 180.998L86.0511 180.998C89.8873 180.998 92.9563 181.653 95.2998 182.992C97.6992 184.359 99.0523 186.271 99.3453 188.768C99.6521 191.418 98.6478 193.594 96.2484 195.198C93.7932 196.858 90.4035 197.695 86.1488 197.695L79.704 197.695L79.2436 207.976L86.2046 207.976C90.808 207.976 94.9092 207.46 98.4804 206.428C101.996 205.424 104.855 203.987 107.073 202.173C109.236 200.402 110.728 198.337 111.551 196.021C112.374 193.706 112.458 191.348 111.886 188.754C111.314 186.159 110.268 184.108 108.72 182.281L108.692 182.295Z" fill="white"/>
<path opacity="0.39" d="M108.162 183.914C106.697 182.17 104.856 180.705 102.652 179.519C100.503 178.362 98.0203 177.483 95.2025 176.897C92.4125 176.297 89.3157 176.018 85.898 176.018L62.6019 176.018L49.252 236.267L66.3683 236.267L72.6039 182.658L85.9119 182.658C89.6784 182.658 92.6776 183.3 94.9932 184.625C97.3368 185.964 98.676 187.847 98.955 190.289C99.2619 192.897 98.2714 195.018 95.9139 196.608C93.5006 198.226 90.1806 199.063 85.9956 199.063L79.6764 199.063L79.2161 209.149L86.0375 209.149C90.5572 209.149 94.5887 208.647 98.0761 207.628C101.522 206.638 104.34 205.243 106.502 203.457C108.622 201.714 110.087 199.691 110.896 197.417C111.705 195.143 111.789 192.828 111.217 190.289C110.645 187.75 109.627 185.727 108.106 183.928L108.162 183.914Z" fill="white"/>
<path opacity="0.38" d="M107.646 185.532C106.209 183.816 104.396 182.393 102.233 181.221C100.127 180.091 97.6858 179.226 94.9238 178.641C92.1896 178.055 89.1486 177.776 85.8006 177.776L62.9509 177.776L49.8521 236.881L66.6476 236.881L72.7715 184.29L85.8285 184.29C89.5252 184.29 92.4686 184.918 94.7285 186.215C97.0302 187.527 98.3415 189.382 98.6204 191.767C98.9134 194.32 97.9509 196.413 95.6352 197.961C93.2637 199.551 90.0134 200.374 85.9122 200.374L79.7046 200.374L79.2582 210.279L85.9541 210.279C90.3901 210.279 94.3379 209.79 97.7695 208.786C101.145 207.81 103.907 206.442 106.042 204.685C108.12 202.969 109.557 200.988 110.352 198.756C111.147 196.524 111.231 194.264 110.673 191.753C110.115 189.242 109.111 187.289 107.618 185.518L107.646 185.532Z" fill="white"/>
<path opacity="0.37" d="M107.115 187.149C105.706 185.476 103.935 184.067 101.814 182.923C99.7497 181.807 97.3642 180.97 94.644 180.398C91.9517 179.826 88.9804 179.547 85.7022 179.547L63.285 179.547L50.4512 237.522L66.9258 237.522L72.9382 185.936L85.7441 185.936C89.371 185.936 92.2586 186.55 94.4767 187.819C96.7365 189.116 98.0199 190.916 98.2989 193.273C98.5918 195.784 97.6432 197.835 95.3694 199.356C93.0398 200.918 89.8593 201.713 85.8278 201.713L79.7457 201.713L79.3132 211.422L85.8836 211.422C90.2359 211.422 94.114 210.934 97.4759 209.957C100.796 209.009 103.502 207.656 105.581 205.94C107.617 204.266 109.026 202.313 109.807 200.137C110.589 197.961 110.658 195.729 110.128 193.273C109.598 190.818 108.594 188.893 107.143 187.149L107.115 187.149Z" fill="white"/>
<path opacity="0.36" d="M106.6 188.768C105.219 187.122 103.475 185.741 101.396 184.625C99.3736 183.537 97.03 182.714 94.3656 182.142C91.7291 181.584 88.8136 181.305 85.5912 181.305L63.6203 181.305L51.0376 238.137L67.1914 238.137L73.0782 187.569L85.633 187.569C89.1902 187.569 92.022 188.182 94.1982 189.424C96.4162 190.693 97.6717 192.465 97.9367 194.767C98.2297 197.222 97.2811 199.231 95.0631 200.723C92.7893 202.258 89.6506 203.039 85.7028 203.039L79.7462 203.039L79.3138 212.553L85.7586 212.553C90.0272 212.553 93.8215 212.078 97.1137 211.116C100.364 210.181 103.014 208.856 105.065 207.182C107.06 205.536 108.441 203.639 109.208 201.49C109.975 199.342 110.045 197.166 109.515 194.753C108.985 192.339 108.008 190.456 106.586 188.754L106.6 188.768Z" fill="white"/>
<path opacity="0.36" d="M106.069 190.386C104.716 188.768 103.014 187.429 100.978 186.327C98.9969 185.253 96.6952 184.443 94.0866 183.899C91.5059 183.355 88.6462 183.076 85.4936 183.076L63.9551 183.076L51.6235 238.778L67.4565 238.778L73.2317 189.214L85.5354 189.214C89.0229 189.214 91.7989 189.814 93.9332 191.028C96.1093 192.269 97.3369 194.013 97.602 196.259C97.881 198.672 96.9603 200.639 94.7841 202.104C92.5522 203.61 89.4832 204.378 85.6191 204.378L79.7742 204.378L79.3557 213.71L85.6749 213.71C89.8599 213.71 93.5705 213.25 96.8068 212.301C99.9874 211.38 102.596 210.083 104.605 208.437C106.572 206.819 107.911 204.964 108.678 202.857C109.445 200.751 109.501 198.616 108.985 196.259C108.469 193.901 107.52 192.046 106.111 190.386L106.069 190.386Z" fill="white"/>
<path opacity="0.35" d="M105.553 192.004C104.228 190.428 102.554 189.103 100.559 188.028C98.6204 186.982 96.3605 186.187 93.8077 185.643C91.2828 185.099 88.4789 184.848 85.382 184.848L64.29 184.848L52.2095 239.405L67.7216 239.405L73.3713 190.86L85.4239 190.86C88.8416 190.86 91.5618 191.446 93.6403 192.632C95.7607 193.846 96.9743 195.547 97.2393 197.765C97.5183 200.123 96.6116 202.048 94.4912 203.485C92.3011 204.95 89.3019 205.703 85.5076 205.703L79.7882 205.703L79.3836 214.84L85.5634 214.84C89.6507 214.84 93.3055 214.38 96.4721 213.473C99.5968 212.58 102.136 211.311 104.103 209.692C106.028 208.116 107.339 206.289 108.092 204.224C108.846 202.16 108.901 200.067 108.385 197.765C107.869 195.464 106.948 193.636 105.567 192.004L105.553 192.004Z" fill="white"/>
<path opacity="0.34" d="M105.023 193.623C103.726 192.074 102.094 190.777 100.141 189.731C98.2438 188.698 96.0397 187.931 93.5287 187.401C91.0596 186.871 88.3115 186.62 85.2844 186.62L64.6248 186.62L52.7954 240.047L67.9867 240.047L73.5248 192.507L85.3263 192.507C88.6603 192.507 91.3386 193.079 93.3753 194.25C95.4538 195.436 96.6395 197.11 96.8906 199.272C97.1557 201.588 96.2768 203.471 94.1983 204.866C92.0501 206.303 89.1206 207.042 85.41 207.042L79.8022 207.042L79.3976 215.984L85.4518 215.984C89.4554 215.984 93.0265 215.538 96.1373 214.645C99.1923 213.766 101.689 212.525 103.614 210.948C105.498 209.4 106.795 207.614 107.52 205.592C108.246 203.569 108.315 201.532 107.813 199.258C107.311 196.985 106.404 195.213 105.051 193.623L105.023 193.623Z" fill="white"/>
</g>
<path d="M144.78 69.4414C141.376 65.382 137.108 62.0061 131.988 59.2441C127.008 56.5518 121.247 54.5291 114.69 53.148C108.218 51.767 101.034 51.0974 93.1101 51.0974L39.0408 51.0974L8.07226 190.916L47.8152 190.916L62.295 66.498L93.1798 66.498C101.926 66.498 108.901 67.9906 114.244 71.0456C119.698 74.1564 122.795 78.5227 123.451 84.2002C124.148 90.2544 121.861 95.1926 116.392 98.8614C110.784 102.628 103.084 104.567 93.3751 104.567L78.7 104.567L77.6398 127.989L93.4867 127.989C103.977 127.989 113.323 126.817 121.442 124.473C129.435 122.171 135.978 118.921 141 114.792C145.924 110.747 149.314 106.06 151.211 100.786C153.108 95.5135 153.275 90.1428 151.964 84.2281C150.709 78.5506 148.267 73.6542 144.752 69.4693L144.78 69.4414Z" fill="black"/>
</g>
<path d="M172.805 123.734L172.805 65.6049C172.805 52.8966 166.026 41.1649 155.019 34.8038L104.689 5.76036C93.6823 -0.586786 80.1231 -0.586786 69.1307 5.76036L18.786 34.8177C7.77959 41.1649 1 52.9106 1 65.6188L0.999999 123.748C0.999999 136.456 7.77959 148.188 18.786 154.549L69.1167 183.606C80.1231 189.953 93.6823 189.953 104.675 183.606L155.005 154.549C166.012 148.201 172.791 136.456 172.791 123.748L172.805 123.734Z" stroke="url(#paint1_linear_21_472)" stroke-width="1.65966" stroke-miterlimit="10"/>
<defs>
<linearGradient id="paint0_linear_21_472" x1="43.77" y1="161.468" x2="145.422" y2="4.07243" gradientUnits="userSpaceOnUse">
<stop stop-color="#3EDDB7"/>
<stop offset="1" stop-color="#CDF12E"/>
</linearGradient>
<linearGradient id="paint1_linear_21_472" x1="-1.78995" y1="94.6762" x2="175.595" y2="94.6762" gradientUnits="userSpaceOnUse">
<stop stop-color="#3EDDB7"/>
<stop offset="1" stop-color="#CDF12E"/>
</linearGradient>
</defs>
</svg>
